<?xml version="1.0" encoding="utf-8"?>
<!-- Generator: Adobe Illustrator 18.0.0, SVG Export Plug-In . SVG Version: 6.00 Build 0)  -->
<!DOCTYPE svg PUBLIC "-//W3C//DTD SVG 1.1//EN" "http://www.w3.org/Graphics/SVG/1.1/DTD/svg11.dtd">
<svg version="1.1" id="Layer_1" xmlns="http://www.w3.org/2000/svg" xmlns:xlink="http://www.w3.org/1999/xlink" x="0px" y="0px"
	 viewBox="0 0 334.4 227.1" enable-background="new 0 0 334.4 227.1" xml:space="preserve">
<g id="Code_editer_square">
	<path id="code-holder_5_" fill="#484F60" d="M330.8,226.6H3.6c-1.7,0-3.1-1.4-3.1-3.1V3.5c0-1.7,1.4-3.1,3.1-3.1h327.2
		c1.7,0,3.1,1.4,3.1,3.1v220C333.9,225.2,332.5,226.6,330.8,226.6z"/>
	<rect id="nav-bar_5_" x="0.5" y="13" fill="#353B47" width="79.2" height="213.6"/>
	<path fill="#C9CCD1" d="M333.9,12.8H1.1V4.6c0-2.3,1.9-4.1,4.1-4.1h324.5c2.3,0,4.1,1.9,4.1,4.1V12.8z"/>
	<g id="Navigation_6_">
		<rect x="10.5" y="23" fill="#576272" width="24.1" height="7.4"/>
		<rect x="16.5" y="33.8" fill="#576272" width="24" height="7.4"/>
		<rect x="26.5" y="44.6" fill="#576272" width="29.7" height="7.4"/>
		<rect x="26.5" y="55.4" fill="#576272" width="23.6" height="7.4"/>
		<rect x="35" y="66.2" fill="#576272" width="38.2" height="7.4"/>
		<rect x="35" y="77" fill="#576272" width="28.3" height="7.4"/>
		<rect x="35" y="87.8" fill="#576272" width="44.7" height="7.4"/>
		<rect x="43.1" y="98.7" fill="#788B9E" width="36.6" height="7.4"/>
		<rect x="10.9" y="109.5" fill="#576272" width="43.4" height="7.4"/>
		<rect x="10.9" y="120.3" fill="#576272" width="38.2" height="7.4"/>
		<rect x="10.9" y="131.1" fill="#576272" width="53" height="7.4"/>
		<rect x="10.9" y="141.9" fill="#576272" width="28" height="7.4"/>
		<rect x="10.9" y="152.7" fill="#576272" width="36" height="7.4"/>
		<rect x="10.9" y="163.5" fill="#576272" width="39.2" height="7.4"/>
		<rect x="10.9" y="174.3" fill="#576272" width="35.3" height="7.4"/>
	</g>
	<g id="file-nav_5_">
		<rect x="143.5" y="13" fill="#576272" width="63.7" height="10"/>
		<rect x="143.5" y="13" fill="#4278BA" width="1.8" height="10"/>
		<rect x="79.8" y="13" fill="#565D66" width="63.7" height="10"/>
	</g>
	<g id="Code_5_">
		<rect x="83.8" y="34" fill="#8CC7E0" width="62.9" height="3.7"/>
		<rect x="101.8" y="64.3" fill="#8CC7E0" width="15.5" height="3.7"/>
		<rect x="83.8" y="46.3" fill="#D86F6F" width="21.7" height="3.7"/>
		<rect x="83.8" y="108.9" fill="#D86F6F" width="45.4" height="3.7"/>
		<rect x="89.8" y="114.9" fill="#D86F6F" width="17.5" height="3.7"/>
		<rect x="95.8" y="120.9" fill="#D86F6F" width="20.9" height="3.7"/>
		<rect x="101.8" y="126.9" fill="#D86F6F" width="9.6" height="3.7"/>
		<rect x="158.9" y="168.9" fill="#D8984C" width="9.6" height="3.7"/>
		<rect x="127.9" y="207.2" fill="#D8984C" width="8" height="3.7"/>
		<rect x="101.7" y="138.9" fill="#D86F6F" width="13.5" height="3.7"/>
		<rect x="107.7" y="144.9" fill="#D86F6F" width="5.3" height="3.7"/>
		<rect x="107.7" y="150.9" fill="#D86F6F" width="5.3" height="3.7"/>
		<rect x="107.7" y="156.9" fill="#D86F6F" width="5.3" height="3.7"/>
		<rect x="107.7" y="180.9" fill="#D86F6F" width="5.3" height="3.7"/>
		<rect x="107.7" y="189.2" fill="#D86F6F" width="29.2" height="3.7"/>
		<rect x="125" y="213.2" fill="#D86F6F" width="17.1" height="3.7"/>
		<rect x="107.7" y="174.9" fill="#D86F6F" width="11.8" height="3.7"/>
		<rect x="113.7" y="162.9" fill="#D86F6F" width="5.3" height="3.7"/>
		<rect x="131.6" y="114.9" fill="#D86F6F" width="6.2" height="3.7"/>
		<rect x="124.1" y="114.9" fill="#CC78CE" width="4.6" height="3.7"/>
		<rect x="89.8" y="52.3" fill="#D86F6F" width="10.2" height="3.7"/>
		<rect x="95.8" y="58.3" fill="#D86F6F" width="10.2" height="3.7"/>
		<rect x="149.7" y="34" fill="#99CE8D" width="39.1" height="3.7"/>
		<rect x="120.4" y="64.3" fill="#99CE8D" width="15.6" height="3.7"/>
		<rect x="138.9" y="64.3" fill="#D8DDD7" width="25.8" height="3.7"/>
		<rect x="101.8" y="76.8" fill="#8CC7E0" width="15.5" height="3.7"/>
		<rect x="144.5" y="132.9" fill="#8CC7E0" width="15.5" height="3.7"/>
		<rect x="144.1" y="168.9" fill="#8CC7E0" width="11.8" height="3.7"/>
		<rect x="122.5" y="174.9" fill="#8CC7E0" width="6" height="3.7"/>
		<rect x="107.7" y="195.2" fill="#8CC7E0" width="3" height="3.7"/>
		<rect x="131.5" y="195.2" fill="#8CC7E0" width="9" height="3.7"/>
		<rect x="116" y="144.9" fill="#8CC7E0" width="7.1" height="3.7"/>
		<rect x="109.8" y="88.8" fill="#8CC7E0" width="5.7" height="3.7"/>
		<rect x="95.8" y="70.8" fill="#D86F6F" width="10.2" height="3.7"/>
		<rect x="95.8" y="82.8" fill="#D86F6F" width="10.2" height="3.7"/>
		<rect x="101.8" y="88.8" fill="#D86F6F" width="5" height="3.7"/>
		<rect x="120.4" y="76.8" fill="#99CE8D" width="7.7" height="3.7"/>
		<rect x="118.5" y="88.8" fill="#99CE8D" width="7.7" height="3.7"/>
		<rect x="115.6" y="94.8" fill="#99CE8D" width="11.6" height="3.7"/>
		<rect x="131.6" y="174.9" fill="#99CE8D" width="22.7" height="3.7"/>
		<rect x="113.4" y="195.2" fill="#99CE8D" width="15.1" height="3.7"/>
		<rect x="124.8" y="201.2" fill="#99CE8D" width="9" height="3.7"/>
		<rect x="131.2" y="76.8" fill="#D8DDD7" width="7.4" height="3.7"/>
		<rect x="101.8" y="94.8" fill="#D8DDD7" width="10.8" height="3.7"/>
		<rect x="110.3" y="114.9" fill="#D8DDD7" width="10.8" height="3.7"/>
		<rect x="107.8" y="132.9" fill="#D8DDD7" width="33.7" height="3.7"/>
		<rect x="126.1" y="144.9" fill="#D8DDD7" width="13.7" height="3.7"/>
		<rect x="122" y="162.9" fill="#D8DDD7" width="13.7" height="3.7"/>
		<rect x="142.2" y="195.2" fill="#D8DDD7" width="2.5" height="3.7"/>
		<rect x="107.7" y="219.2" fill="#D8DDD7" width="2.5" height="3.7"/>
		<rect x="113.7" y="168.9" fill="#D8DDD7" width="27.3" height="3.7"/>
		<rect x="113.4" y="201.2" fill="#D8DDD7" width="8.4" height="3.7"/>
		<rect x="113.4" y="207.2" fill="#D8DDD7" width="11.5" height="3.7"/>
		<rect x="113.4" y="213.2" fill="#D8DDD7" width="8.6" height="3.7"/>
		<rect x="142.8" y="144.9" fill="#D8DDD7" width="8.1" height="3.7"/>
	</g>
	<circle fill="#D84141" cx="11.1" cy="7" r="3.3"/>
	<circle fill="#E5E161" cx="21.1" cy="7" r="3.3"/>
	<circle fill="#51B75D" cx="32.1" cy="7" r="3.3"/>
	<path id="border_5_" fill="none" stroke="#8DADE0" stroke-width="1.0287" stroke-miterlimit="10" d="M329.8,226.6H4.6
		c-2.3,0-4.1-1.9-4.1-4.1V4.6c0-2.3,1.9-4.1,4.1-4.1h325.1c2.3,0,4.1,1.9,4.1,4.1v217.8C333.9,224.7,332,226.6,329.8,226.6z"/>
</g>
</svg>
