<?xml version="1.0" encoding="utf-8"?>
<!-- Generator: Adobe Illustrator 18.0.0, SVG Export Plug-In . SVG Version: 6.00 Build 0)  -->
<!DOCTYPE svg PUBLIC "-//W3C//DTD SVG 1.1//EN" "http://www.w3.org/Graphics/SVG/1.1/DTD/svg11.dtd">
<svg version="1.1" id="Layer_1" xmlns="http://www.w3.org/2000/svg" xmlns:xlink="http://www.w3.org/1999/xlink" x="0px" y="0px"
	 viewBox="0 0 325.4 241.6" enable-background="new 0 0 325.4 241.6" xml:space="preserve">
<g id="conclusion-used">
	
		<rect x="158.1" y="183.5" fill="#FCE4C5" stroke="#2E6982" stroke-width="3.9994" stroke-linecap="round" stroke-linejoin="round" stroke-miterlimit="10" width="33.3" height="56.1"/>
	<path fill="#FCE4C5" stroke="#2E6982" stroke-width="3.9994" stroke-miterlimit="10" d="M174.3,211.1L174.3,211.1
		c-27.5,0-50-22.5-50-50v-36.7c0-27.5,22.5-50,50-50h0c27.5,0,50,22.5,50,50v36.7C224.3,188.6,201.8,211.1,174.3,211.1z"/>
	<path fill="#EAD4BB" d="M124.3,131.2c0,0,28.1-13.8,46.9-12.2c10.6,0.9,53.2,9.1,53.2,9.1l-1-17.1l-54.3-13l-44.7,17.1L124.3,131.2
		z"/>
	<path fill="none" stroke="#2E6982" stroke-width="3.9994" stroke-miterlimit="10" d="M174.3,210.7L174.3,210.7
		c-27.5,0-50-22.5-50-50V124c0-27.5,22.5-50,50-50h0c27.5,0,50,22.5,50,50v36.7C224.2,188.2,201.8,210.7,174.3,210.7z"/>
	
		<path fill="#E8AC34" stroke="#2E6982" stroke-width="4" stroke-linecap="round" stroke-linejoin="round" stroke-miterlimit="10" d="
		M109.9,106"/>
	
		<path fill="#B78835" stroke="#2E6982" stroke-width="4" stroke-linecap="round" stroke-linejoin="round" stroke-miterlimit="10" d="
		M119.3,120.4c0,0-47.2-28.4,0-52.7c0,0-34.5-13.3-10.5-37.4s40.9-11,40.9-11s18.9-12.1,37.8,5.2s27.8,7.3,27.8,7.3
		s36.7,9.4,28.9,24.7c-7.9,15.2,5.8,28.2,5.8,28.2s9.1,35.9-30.9,35.1s-49.8-15.9-49.8-15.9S150.3,125.5,119.3,120.4z"/>
	
		<path fill="none" stroke="#2E6982" stroke-width="2.9996" stroke-linecap="round" stroke-linejoin="round" stroke-miterlimit="10" d="
		M135.9,137.3c2.6-7.2,10.6-11,17.8-8.4"/>
	
		<path fill="none" stroke="#2E6982" stroke-width="2.9996" stroke-linecap="round" stroke-linejoin="round" stroke-miterlimit="10" d="
		M187.7,129.5c7.3-2.2,15.1,2,17.3,9.3"/>
	
		<path fill="#B78835" stroke="#2E6982" stroke-width="4" stroke-linecap="round" stroke-linejoin="round" stroke-miterlimit="10" d="
		M139.4,98.1"/>
	
		<path fill="#B78835" stroke="#7F6A2E" stroke-width="4" stroke-linecap="round" stroke-linejoin="round" stroke-miterlimit="10" d="
		M149.3,36.8c0,0,20.3,5.2,31.3,17.3s36.1,14,36.1,14"/>
	
		<path fill="#B78835" stroke="#7F6A2E" stroke-width="4" stroke-linecap="round" stroke-linejoin="round" stroke-miterlimit="10" d="
		M115.3,39.8c0,0,20.3,5.2,31.3,17.3s36.1,14,36.1,14"/>
	
		<path fill="#B78835" stroke="#7F6A2E" stroke-width="4" stroke-linecap="round" stroke-linejoin="round" stroke-miterlimit="10" d="
		M185.3,84.8c0,0,9.8,2.6,15.2,8.7c5.4,6,17.6,7,17.6,7"/>
	
		<path fill="#B78835" stroke="#7F6A2E" stroke-width="4" stroke-linecap="round" stroke-linejoin="round" stroke-miterlimit="10" d="
		M128.3,84.8c0,0,9.8,2.6,15.2,8.7c5.4,6,17.6,7,17.6,7"/>
	
		<polyline fill="none" stroke="#2E6982" stroke-width="3" stroke-linecap="round" stroke-linejoin="round" stroke-miterlimit="10" points="
		170.2,153.8 162.7,167.3 171.8,168.3 	"/>
	<path fill="none" stroke="#2E6982" stroke-width="4" stroke-linecap="round" stroke-linejoin="round" stroke-miterlimit="10" d="
		M145.9,182.2c0,0,23.3,17.9,50.5,0"/>
	<circle fill="#2E6982" cx="147.7" cy="142.5" r="4.8"/>
	<circle fill="#2E6982" cx="194.7" cy="142.5" r="4.8"/>
	<circle fill="#EDCEAE" cx="198.8" cy="164.6" r="9.2"/>
	<circle fill="#EDCEAE" cx="146.6" cy="164.6" r="9.2"/>
	
		<text transform="matrix(0.9336 -0.3582 0.3582 0.9336 18.2671 125.9741)" fill="#D9DBDB" font-family="'GothamRounded-Bold'" font-size="60">?</text>
	
		<text transform="matrix(0.9336 -0.3582 0.3582 0.9336 41.5845 59.3071)" fill="#D9DBDB" font-family="'GothamRounded-Bold'" font-size="60">?</text>
	
		<text transform="matrix(-0.9336 -0.3582 -0.3582 0.9336 307.1631 71.21)" fill="#D9DBDB" font-family="'GothamRounded-Bold'" font-size="60">?</text>
	
		<text transform="matrix(-0.9336 -0.3582 -0.3582 0.9336 293.3838 173.8545)" fill="#D9DBDB" font-family="'GothamRounded-Bold'" font-size="60">?</text>
</g>
</svg>
