<?xml version="1.0" encoding="utf-8"?>
<!-- Generator: Adobe Illustrator 18.0.0, SVG Export Plug-In . SVG Version: 6.00 Build 0)  -->
<!DOCTYPE svg PUBLIC "-//W3C//DTD SVG 1.1//EN" "http://www.w3.org/Graphics/SVG/1.1/DTD/svg11.dtd">
<svg version="1.1" id="Layer_1" xmlns="http://www.w3.org/2000/svg" xmlns:xlink="http://www.w3.org/1999/xlink" x="0px" y="0px"
	 viewBox="0 0 257.9 284.6" enable-background="new 0 0 257.9 284.6" xml:space="preserve">
<g>
	<path fill="#E5E15C" d="M210.5,154.3c0-46.2-37.5-83.7-83.7-83.7c-46.2,0-83.7,37.5-83.7,83.7c0,27,15.3,46.6,15.3,46.6
		c8.5,10.8,15.3,19.7,15.2,19.7s-0.2,11.2-0.2,25v10c0,13.8,11.4,25,25.1,25h55c13.8,0,24.9-11.2,24.9-25v-10
		c0-13.8,0-25.1-0.2-25.3c0,0,0,0,0.2-0.1C197.9,204.8,210.5,181,210.5,154.3z"/>
</g>
<path fill="#D1CA54" d="M126.8,70.6c0,0-73,86.1-32.1,150c0,0-37.5,16.7-51.6-75C43.1,145.6,50.2,76.5,126.8,70.6z"/>
<path fill="#E0E0E0" d="M154.5,280.6H97.5c-13.2,0-24-10.8-24-24v-36h105.2v36C178.6,269.8,167.8,280.6,154.5,280.6z"/>
<path fill="#CECECE" d="M103.9,220.6c0,0-9.8,29.8,18.1,60c0,0-48.4,2-48.6-34.6s0.5-25.4,0.5-25.4"/>
<g>
	<path fill="none" stroke="#000000" stroke-width="8" stroke-linejoin="round" stroke-miterlimit="10" d="M210.5,154.3
		c0-46.2-37.5-83.7-83.7-83.7c-46.2,0-83.7,37.5-83.7,83.7c0,27,15.3,46.6,15.3,46.6c8.5,10.8,15.3,19.7,15.2,19.7s-0.2,11.2-0.2,25
		v10c0,13.8,11.4,25,25.1,25h55c13.8,0,24.9-11.2,24.9-25v-8c0-13.8,0-25.4,0-26s0-1,0-1c0,0,0.1,0,0.3-0.1
		C198.2,205.1,210.5,181,210.5,154.3z"/>
</g>
<line fill="none" stroke="#000000" stroke-width="8" stroke-miterlimit="10" x1="73.4" y1="222.6" x2="178.4" y2="222.6"/>
<circle cx="104.4" cy="144.3" r="7.1"/>
<circle cx="144.4" cy="144.3" r="7.1"/>
<path fill="none" stroke="#000000" stroke-width="8" stroke-linecap="round" stroke-linejoin="round" stroke-miterlimit="10" d="
	M97.7,168.5c0,0,22.1,26.8,51.1,0"/>
<path fill="none" stroke="#000000" stroke-width="8" stroke-linecap="round" stroke-linejoin="round" stroke-miterlimit="10" d="
	M67.9,197.1c0,0-44.5-2.2-63.3-39.7"/>
<path fill="none" stroke="#000000" stroke-width="8" stroke-linecap="round" stroke-linejoin="round" stroke-miterlimit="10" d="
	M9.2,163.6"/>
<line fill="none" stroke="#000000" stroke-width="8" stroke-linecap="round" stroke-linejoin="round" stroke-miterlimit="10" x1="10" y1="165.8" x2="15.8" y2="160.7"/>
<line fill="none" stroke="#000000" stroke-width="8" stroke-linecap="round" stroke-linejoin="round" stroke-miterlimit="10" x1="4" y1="170.8" x2="9.8" y2="165.7"/>
<path fill="none" stroke="#000000" stroke-width="8" stroke-linecap="round" stroke-linejoin="round" stroke-miterlimit="10" d="
	M184.2,200.3c0,0,56.8-27.5,64.7-76.1"/>
<path fill="none" stroke="#000000" stroke-width="8" stroke-linecap="round" stroke-linejoin="round" stroke-miterlimit="10" d="
	M247.2,131.8"/>
<line fill="none" stroke="#000000" stroke-width="8" stroke-linecap="round" stroke-linejoin="round" stroke-miterlimit="10" x1="246.4" y1="134.5" x2="239" y2="132.2"/>
<line fill="none" stroke="#000000" stroke-width="8" stroke-linecap="round" stroke-linejoin="round" stroke-miterlimit="10" x1="253.9" y1="136.7" x2="246.5" y2="134.3"/>
<path fill="none" stroke="#FFFFFF" stroke-width="8" stroke-linecap="round" stroke-linejoin="round" stroke-miterlimit="10" d="
	M124.9,87.3c0,0,19.6-3,33.2,8.5"/>
<path fill="none" stroke="#FFFFFF" stroke-width="8" stroke-linecap="round" stroke-linejoin="round" stroke-miterlimit="10" d="
	M167.5,102.8c0,0,8.5,4.5,14.8,13.9"/>
<path fill="none" stroke="#FFFFFF" stroke-width="8" stroke-linecap="round" stroke-linejoin="round" stroke-miterlimit="10" d="
	M182.1,131.9"/>
<path fill="none" stroke="#ED6666" stroke-width="4.8103" stroke-miterlimit="10" d="M226.7,80.8l-3-5.4c-0.9-1.7-3.4-1.7-4.4,0
	l-3,5.4c-0.2,0.4-0.6,0.8-1,1l-5.4,3c-1.7,0.9-1.7,3.4,0,4.4l5.4,3c0.4,0.2,0.8,0.6,1,1l3,5.4c0.9,1.7,3.4,1.7,4.4,0l3-5.4
	c0.2-0.4,0.6-0.8,1-1l5.4-3c1.7-0.9,1.7-3.4,0-4.4l-5.4-3C227.3,81.6,226.9,81.2,226.7,80.8z"/>
<path fill="#ED6666" d="M170.5,15.9l-1.7-3.1c-0.5-1-2-1-2.5,0l-1.7,3.1c-0.1,0.2-0.3,0.4-0.6,0.6l-3.1,1.7c-1,0.5-1,2,0,2.5
	l3.1,1.7c0.2,0.1,0.4,0.3,0.6,0.6l1.7,3.1c0.5,1,2,1,2.5,0l1.7-3.1c0.1-0.2,0.3-0.4,0.6-0.6l3.1-1.7c1-0.5,1-2,0-2.5l-3.1-1.7
	C170.8,16.3,170.6,16.1,170.5,15.9z"/>
<path fill="#58B9E0" d="M87.9,3.9l-1.7-3.1c-0.5-1-2-1-2.5,0L82,3.9c-0.1,0.2-0.3,0.4-0.6,0.6l-3.1,1.7c-1,0.5-1,2,0,2.5l3.1,1.7
	c0.2,0.1,0.4,0.3,0.6,0.6l1.7,3.1c0.5,1,2,1,2.5,0l1.7-3.1c0.1-0.2,0.3-0.4,0.6-0.6l3.1-1.7c1-0.5,1-2,0-2.5l-3.1-1.7
	C88.2,4.3,88,4.1,87.9,3.9z"/>
<path fill="#ED6666" d="M117.5,41.5l-1.7-3.1c-0.5-1-2-1-2.5,0l-1.7,3.1c-0.1,0.2-0.3,0.4-0.6,0.6l-3.1,1.7c-1,0.5-1,2,0,2.5L111,48
	c0.2,0.1,0.4,0.3,0.6,0.6l1.7,3.1c0.5,1,2,1,2.5,0l1.7-3.1c0.1-0.2,0.3-0.4,0.6-0.6l3.1-1.7c1-0.5,1-2,0-2.5l-3.1-1.7
	C117.8,41.9,117.6,41.7,117.5,41.5z"/>
<path fill="none" stroke="#ED6666" stroke-width="4.8103" stroke-miterlimit="10" d="M35.9,89.7l-3-5.4c-0.9-1.7-3.4-1.7-4.4,0
	l-3,5.4c-0.2,0.4-0.6,0.8-1,1l-5.4,3c-1.7,0.9-1.7,3.4,0,4.4l5.4,3c0.4,0.2,0.8,0.6,1,1l3,5.4c0.9,1.7,3.4,1.7,4.4,0l3-5.4
	c0.2-0.4,0.6-0.8,1-1l5.4-3c1.7-0.9,1.7-3.4,0-4.4l-5.4-3C36.5,90.4,36.1,90.1,35.9,89.7z"/>
<path fill="#F7F252" d="M79.5,37.9l-3.4-6.3c-1.1-2-4-2-5.1,0l-3.4,6.3c-0.3,0.5-0.7,0.9-1.1,1.1l-6.3,3.4c-2,1.1-2,4,0,5.1l6.3,3.4
	c0.5,0.3,0.9,0.7,1.1,1.1l3.4,6.3c1.1,2,4,2,5.1,0l3.4-6.3c0.3-0.5,0.7-0.9,1.1-1.1l6.3-3.4c2-1.1,2-4,0-5.1L80.7,39
	C80.2,38.8,79.8,38.4,79.5,37.9z"/>
<path fill="#F7F252" d="M207.6,31.8l-3.4-6.3c-1.1-2-4-2-5.1,0l-3.4,6.3c-0.3,0.5-0.7,0.9-1.1,1.1l-6.3,3.4c-2,1.1-2,4,0,5.1
	l6.3,3.4c0.5,0.3,0.9,0.7,1.1,1.1l3.4,6.3c1.1,2,4,2,5.1,0l3.4-6.3c0.3-0.5,0.7-0.9,1.1-1.1l6.3-3.4c2-1.1,2-4,0-5.1l-6.3-3.4
	C208.2,32.7,207.8,32.3,207.6,31.8z"/>
<circle fill="#EDBB1B" cx="126.6" cy="12" r="12"/>
<circle fill="none" stroke="#58B9E0" stroke-width="4" stroke-miterlimit="10" cx="154.9" cy="48.7" r="8.4"/>
<circle fill="none" stroke="#EDBB1B" stroke-width="4" stroke-miterlimit="10" cx="30.9" cy="56.7" r="8.4"/>
</svg>
