<?xml version="1.0" encoding="utf-8"?>
<!-- Generator: Adobe Illustrator 18.0.0, SVG Export Plug-In . SVG Version: 6.00 Build 0)  -->
<!DOCTYPE svg PUBLIC "-//W3C//DTD SVG 1.1//EN" "http://www.w3.org/Graphics/SVG/1.1/DTD/svg11.dtd">
<svg version="1.1" id="Layer_1" xmlns="http://www.w3.org/2000/svg" xmlns:xlink="http://www.w3.org/1999/xlink" x="0px" y="0px"
	 viewBox="0 0 261.5 135" enable-background="new 0 0 261.5 135" xml:space="preserve">
<path fill="#FFFFFF" stroke="#E8E8E8" stroke-width="2" stroke-miterlimit="10" d="M182.8,134H72.2c-0.6,0-1-0.4-1-1V2
	c0-0.5,0.4-1,1-1h110.6c0.6,0,1,0.5,1,1v131C183.8,133.6,183.3,134,182.8,134z"/>
<rect x="71.9" y="1.5" fill="#E8E8E8" width="111.2" height="13.3"/>
<rect x="166.5" y="7.3" fill="#C9C9C9" width="10.9" height="1.6"/>
<rect x="179.9" y="6.6" fill="#A3A3C4" width="45.3" height="1.6"/>
<rect x="149.3" y="7.3" fill="#C9C9C9" width="10.9" height="1.6"/>
<rect x="131.4" y="7.3" fill="#C9C9C9" width="10.9" height="1.6"/>
<g>
	<rect x="80" y="22.4" fill="#C9C9C9" width="27.1" height="55.7"/>
	<rect x="80" y="86.4" fill="#C9C9C9" width="27.1" height="46.6"/>
	<rect x="113.3" y="22.4" fill="#C9C9C9" width="27.1" height="81.1"/>
	<rect x="147.9" y="22.4" fill="#C9C9C9" width="27.1" height="34.1"/>
	<rect x="113.3" y="112" fill="#C9C9C9" width="27.1" height="21.1"/>
	<rect x="147.9" y="64.8" fill="#C9C9C9" width="27.1" height="66.3"/>
</g>
<rect x="229.6" y="5.8" fill="#E2E2E2" width="31.9" height="1.8"/>
<rect x="229.6" y="9.8" fill="#E2E2E2" width="31.9" height="1.8"/>
<rect x="229.6" y="13.8" fill="#E2E2E2" width="13" height="1.8"/>
<rect x="164.8" y="84.2" fill="#A3A3C4" width="45.3" height="1.6"/>
<rect x="214.5" y="83.5" fill="#E2E2E2" width="25.7" height="1.8"/>
<rect x="214.5" y="87.5" fill="#E2E2E2" width="13" height="1.8"/>
<rect x="30.1" y="37.3" fill="#A3A3C4" width="45.3" height="1.6"/>
<rect x="0" y="36.5" fill="#E2E2E2" width="25.7" height="1.8"/>
<rect x="0" y="40.5" fill="#E2E2E2" width="21.6" height="1.8"/>
</svg>
