<?xml version="1.0" encoding="utf-8"?>
<!-- Generator: Adobe Illustrator 18.0.0, SVG Export Plug-In . SVG Version: 6.00 Build 0)  -->
<!DOCTYPE svg PUBLIC "-//W3C//DTD SVG 1.1//EN" "http://www.w3.org/Graphics/SVG/1.1/DTD/svg11.dtd">
<svg version="1.1" id="Layer_1" xmlns="http://www.w3.org/2000/svg" xmlns:xlink="http://www.w3.org/1999/xlink" x="0px" y="0px"
	 viewBox="0 0 338.5 379" enable-background="new 0 0 338.5 379" xml:space="preserve">
<rect x="292.1" y="25.9" fill="#2F3D49" width="46.3" height="268.1"/>
<polygon fill="#2F3D49" points="338.5,294 315.9,363.1 292.1,294 "/>
<g>
	<path fill="#E2DCC3" d="M262,24c0-11-9-20-20-20H24C13,4,4,13,4,24v331c0,11,9,20,20,20h218c11,0,20-9,20-20V24z"/>
	<path fill="none" stroke="#2F3D49" stroke-width="8" stroke-miterlimit="10" d="M262,24c0-11-9-20-20-20H24C13,4,4,13,4,24v331
		c0,11,9,20,20,20h218c11,0,20-9,20-20V24z"/>
</g>
<polygon fill="#D6C565" stroke="#2F3D49" stroke-width="5.2551" stroke-miterlimit="10" points="333,295.9 296.7,295.9 296.7,79.1 
	333.9,79.1 "/>
<line fill="#D6C565" stroke="#2F3D49" stroke-width="5" stroke-miterlimit="10" x1="315.5" y1="79" x2="315.5" y2="296"/>
<path fill="#D6C565" stroke="#2F3D49" stroke-width="5.2551" stroke-miterlimit="10" d="M296.7,295.9"/>
<polygon fill="#7C7559" stroke="#2F3D49" stroke-width="5" stroke-miterlimit="10" points="333,296.5 315.2,352.3 297.5,296.5 "/>
<circle fill="#2F3D49" cx="315.3" cy="337.4" r="6.7"/>
<rect x="296.4" y="31.9" fill="#BC4B4B" stroke="#2F3D49" stroke-width="4.8083" stroke-miterlimit="10" width="37.8" height="44.6"/>
<g>
	<line fill="none" stroke="#A09F73" stroke-width="8" stroke-miterlimit="10" x1="26" y1="49" x2="240" y2="49"/>
	<line fill="none" stroke="#A09F73" stroke-width="8" stroke-miterlimit="10" x1="26" y1="72" x2="240" y2="72"/>
	<line fill="none" stroke="#A09F73" stroke-width="8" stroke-miterlimit="10" x1="26" y1="95" x2="240" y2="95"/>
	<line fill="none" stroke="#A09F73" stroke-width="8" stroke-miterlimit="10" x1="26" y1="118" x2="240" y2="118"/>
	<line fill="none" stroke="#A09F73" stroke-width="8" stroke-miterlimit="10" x1="26" y1="141" x2="240" y2="141"/>
	<line fill="none" stroke="#A09F73" stroke-width="8" stroke-miterlimit="10" x1="26" y1="164" x2="240" y2="164"/>
	<line fill="none" stroke="#A09F73" stroke-width="8" stroke-miterlimit="10" x1="26" y1="187" x2="240" y2="187"/>
	<line fill="none" stroke="#A09F73" stroke-width="8" stroke-miterlimit="10" x1="26" y1="210" x2="240" y2="210"/>
	<line fill="none" stroke="#A09F73" stroke-width="8" stroke-miterlimit="10" x1="26" y1="233" x2="240" y2="233"/>
	<line fill="none" stroke="#A09F73" stroke-width="8" stroke-miterlimit="10" x1="26" y1="256" x2="240" y2="256"/>
	<line fill="none" stroke="#A09F73" stroke-width="8" stroke-miterlimit="10" x1="26" y1="279" x2="240" y2="279"/>
	<line fill="none" stroke="#A09F73" stroke-width="8" stroke-miterlimit="10" x1="26" y1="302" x2="240" y2="302"/>
	<line fill="none" stroke="#A09F73" stroke-width="8" stroke-miterlimit="10" x1="26" y1="325" x2="240" y2="325"/>
</g>
<g>
	<path fill="#020405" d="M133.2,226.7c0,0,16-21.5,50.8-0.4c33.6,20.4,40.1,22.2,45.4,20c12-4.9,0.7-28.4-11.6-17.3
		c0,0,7.1-18.1,23.4-2.4c15.3,14.7,1.7,32.1,1.7,32.1c0.4-0.1-9.6,12.8-27.8,15c-7.5,0.9-12.3,2.5-33.5-0.9
		c-27.8-4.4-48.7-21-48.7-21v-25.4l0.4-0.1"/>
	<path fill="#020405" d="M132.4,226.7c0,0-16-21.5-50.8-0.4c-33.6,20.4-40.1,22.2-45.4,20c-12-4.9-0.7-28.4,11.6-17.3
		c0,0-7.1-18.1-23.4-2.4c-15.3,14.7-1.7,32.1-1.7,32.1c-0.4-0.1,9.6,12.8,27.8,15c7.5,0.9,12.5,2.5,33.7-0.9
		c27.8-4.4,48.9-21,48.9-21v-25.4l-0.6-0.1"/>
</g>
<path fill="#2F3D49" d="M333.9,295.8"/>
</svg>
