<?xml version="1.0" encoding="utf-8"?>
<!-- Generator: Adobe Illustrator 18.0.0, SVG Export Plug-In . SVG Version: 6.00 Build 0)  -->
<!DOCTYPE svg PUBLIC "-//W3C//DTD SVG 1.1//EN" "http://www.w3.org/Graphics/SVG/1.1/DTD/svg11.dtd">
<svg version="1.1" id="Layer_1" xmlns="http://www.w3.org/2000/svg" xmlns:xlink="http://www.w3.org/1999/xlink" x="0px" y="0px"
	 viewBox="0 0 186 210" enable-background="new 0 0 186 210" xml:space="preserve">
<g>
	<g>
		<path fill="#E2DCC3" d="M145,13.1C145,7,140,2,133.9,2H13.1C7,2,2,7,2,13.1v183.8C2,203,7,208,13.1,208h120.8
			c6.1,0,11.1-5,11.1-11.1V13.1z"/>
		<path fill="none" stroke="#2F3D49" stroke-width="4" stroke-miterlimit="10" d="M145,13.1C145,7,140,2,133.9,2H13.1
			C7,2,2,7,2,13.1v183.8C2,203,7,208,13.1,208h120.8c6.1,0,11.1-5,11.1-11.1V13.1z"/>
	</g>
	<polygon fill="#D6C565" stroke="#2F3D49" stroke-width="2.912" stroke-miterlimit="10" points="183.9,163.7 163.8,163.7 
		163.8,43.6 184.4,43.6 	"/>
	<line fill="#D6C565" stroke="#2F3D49" stroke-width="3" stroke-miterlimit="10" x1="174.5" y1="44" x2="174.5" y2="164"/>
	<path fill="#D6C565" stroke="#2F3D49" stroke-width="2.912" stroke-miterlimit="10" d="M163.8,163.7"/>
	<polygon fill="#7C7559" stroke="#2F3D49" stroke-width="3" stroke-miterlimit="10" points="183.9,164.5 174.1,195.4 164.2,164.5 	
		"/>
	<circle fill="#2F3D49" cx="174.1" cy="186.1" r="3.7"/>
	
		<rect x="163.6" y="17.4" fill="#BC4B4B" stroke="#2F3D49" stroke-width="2.6644" stroke-miterlimit="10" width="20.9" height="24.7"/>
	<g>
		<line fill="none" stroke="#A09F73" stroke-width="5" stroke-miterlimit="10" x1="14" y1="27.5" x2="133" y2="27.5"/>
		<line fill="none" stroke="#A09F73" stroke-width="5" stroke-miterlimit="10" x1="14" y1="40.5" x2="133" y2="40.5"/>
		<line fill="none" stroke="#A09F73" stroke-width="5" stroke-miterlimit="10" x1="14" y1="52.5" x2="133" y2="52.5"/>
		<line fill="none" stroke="#A09F73" stroke-width="5" stroke-miterlimit="10" x1="14" y1="65.5" x2="133" y2="65.5"/>
		<line fill="none" stroke="#A09F73" stroke-width="5" stroke-miterlimit="10" x1="14" y1="78.5" x2="133" y2="78.5"/>
		<line fill="none" stroke="#A09F73" stroke-width="5" stroke-miterlimit="10" x1="14" y1="91.5" x2="133" y2="91.5"/>
		<line fill="none" stroke="#A09F73" stroke-width="5" stroke-miterlimit="10" x1="14" y1="104.5" x2="133" y2="104.5"/>
		<line fill="none" stroke="#A09F73" stroke-width="5" stroke-miterlimit="10" x1="14" y1="116.5" x2="133" y2="116.5"/>
		<line fill="none" stroke="#A09F73" stroke-width="5" stroke-miterlimit="10" x1="14" y1="129.5" x2="133" y2="129.5"/>
		<line fill="none" stroke="#A09F73" stroke-width="5" stroke-miterlimit="10" x1="14" y1="142.5" x2="133" y2="142.5"/>
		<line fill="none" stroke="#A09F73" stroke-width="5" stroke-miterlimit="10" x1="14" y1="154.5" x2="133" y2="154.5"/>
		<line fill="none" stroke="#A09F73" stroke-width="5" stroke-miterlimit="10" x1="14" y1="167.5" x2="133" y2="167.5"/>
		<line fill="none" stroke="#A09F73" stroke-width="5" stroke-miterlimit="10" x1="14" y1="180.5" x2="133" y2="180.5"/>
	</g>
</g>
</svg>
