<?xml version="1.0" encoding="utf-8"?>
<!-- Generator: Adobe Illustrator 18.0.0, SVG Export Plug-In . SVG Version: 6.00 Build 0)  -->
<!DOCTYPE svg PUBLIC "-//W3C//DTD SVG 1.1//EN" "http://www.w3.org/Graphics/SVG/1.1/DTD/svg11.dtd">
<svg version="1.1" id="Layer_1" xmlns="http://www.w3.org/2000/svg" xmlns:xlink="http://www.w3.org/1999/xlink" x="0px" y="0px"
	 viewBox="0 0 382.9 462.4" enable-background="new 0 0 382.9 462.4" xml:space="preserve">
<path fill="#E8AC34" stroke="#2E6982" stroke-width="8" stroke-linecap="round" stroke-linejoin="round" stroke-miterlimit="10" d="
	M305.5,169.5c0,0,34.9,46.5,0,76s-14.5-65.9-14.5-65.9"/>
<path fill="#E8AC34" stroke="#2E6982" stroke-width="8" stroke-linecap="round" stroke-linejoin="round" stroke-miterlimit="10" d="
	M19.7,176c0,0-21.7,56.8,12.6,91s7.6-75.4,7.6-75.4"/>
<path fill="#F5F6F7" stroke="#2E6982" stroke-width="8" stroke-linecap="round" stroke-linejoin="round" stroke-miterlimit="10" d="
	M305.5,270c0,104.1-50.3,188.4-136.5,188.4S30.3,374,30.3,270S82.8,81.6,168.9,81.6S305.5,165.9,305.5,270z"/>
<path fill="none" stroke="#2E6982" stroke-width="8" stroke-linecap="round" stroke-linejoin="round" stroke-miterlimit="10" d="
	M86.8,228c15.8-15.8,41.4-15.8,57.2,0"/>
<circle fill="#2E6982" cx="105.7" cy="250.5" r="15.9"/>
<path fill="none" stroke="#2E6982" stroke-width="8" stroke-linecap="round" stroke-linejoin="round" stroke-miterlimit="10" d="
	M189.8,228c15.8-15.8,41.4-15.8,57.2,0"/>
<circle fill="#2E6982" cx="211.7" cy="251.5" r="15.9"/>
<path fill="none" stroke="#2E6982" stroke-width="8" stroke-linecap="round" stroke-linejoin="round" stroke-miterlimit="10" d="
	M140.4,377.9c0,0,34.8,31.4,61.4-1.7"/>
<path fill="#E8E9EA" d="M40,210.3c0,0,57.8-26.7,85.9-34.3c28.2-7.6,46.4-5.7,73.6,0c27.2,5.7,47.9,11.7,68.2,12.1
	c20.3,0.5,29.3-12.1,29.7-17.2c0.4-5.1,19.7-16.4-19.8-23.8c-39.5-7.4-121.1-15.8-143.1-12.3c-21.9,3.5-64.4-7.4-76.2,9.9
	S40,210.3,40,210.3z"/>
<path fill="#E8AC34" stroke="#2E6982" stroke-width="8" stroke-linecap="round" stroke-linejoin="round" stroke-miterlimit="10" d="
	M40.3,195.2c0.2,2.3-66.9-29.1-19.1-99.1C65.8,30.7,134,44,134,44s119.6,32,171.5-10.6c50-41,46.3-27,46.3-27s56.9,96.4,6.2,120.8
	s-67,52.4-67,52.4s-87.3-30.4-123-24.9S59.4,184.3,40.3,195.2z"/>
<g>
	<path fill="#606363" d="M176,344c0,0-8.2-11-25.9-0.2c-17.2,10.4-20.5,11.3-23.2,10.2c-6.1-2.5-0.4-14.5,5.9-8.8
		c0,0-3.6-9.3-11.9-1.2c-7.8,7.5-0.9,16.4-0.9,16.4c-0.2,0,4.9,6.5,14.2,7.7c3.8,0.5,6.8,1.3,17.6-0.4c14.2-2.3,25.4-10.7,25.4-10.7
		v-13l-0.7-0.1"/>
	<path fill="#606363" d="M171.9,344c0,0,8.2-11,25.9-0.2c17.2,10.4,20.5,11.3,23.2,10.2c6.1-2.5,0.4-14.5-5.9-8.8
		c0,0,3.6-9.3,11.9-1.2c7.8,7.5,0.9,16.4,0.9,16.4c0.2,0-4.9,6.5-14.2,7.7c-3.8,0.5-6.1,1.3-16.9-0.4c-14.2-2.3-24.7-10.7-24.7-10.7
		v-13l0-0.1"/>
</g>
<circle fill="none" stroke="#606363" stroke-width="12" stroke-miterlimit="10" cx="114.9" cy="249" r="34.5"/>
<circle fill="none" stroke="#606363" stroke-width="12" stroke-miterlimit="10" cx="220.6" cy="249" r="34.5"/>
<path fill="none" stroke="#606363" stroke-width="12" stroke-miterlimit="10" d="M143.3,230.9c0-9.4,10.9-17.1,24.4-17.1
	c13.5,0,24.4,7.6,24.4,17.1"/>
<circle opacity="0.67" fill="#DFE6EA" cx="220.2" cy="249.1" r="28.6"/>
<circle opacity="0.67" fill="#DFE6EA" cx="115.2" cy="249.1" r="28.6"/>
</svg>
