<?xml version="1.0" encoding="utf-8"?>
<!-- Generator: Adobe Illustrator 18.0.0, SVG Export Plug-In . SVG Version: 6.00 Build 0)  -->
<!DOCTYPE svg PUBLIC "-//W3C//DTD SVG 1.1//EN" "http://www.w3.org/Graphics/SVG/1.1/DTD/svg11.dtd">
<svg version="1.1" id="Layer_1" xmlns="http://www.w3.org/2000/svg" xmlns:xlink="http://www.w3.org/1999/xlink" x="0px" y="0px"
	 viewBox="0 0 357.5 275.3" enable-background="new 0 0 357.5 275.3" xml:space="preserve">
<g>
	<ellipse fill="#EAEFF4" cx="176.9" cy="267.6" rx="127.9" ry="7.7"/>
	
		<rect x="162.4" y="213.8" fill="#CFD1D3" stroke="#CFD1D3" stroke-width="5" stroke-linecap="round" stroke-linejoin="round" stroke-miterlimit="10" width="31" height="49.3"/>
	
		<path fill="#D35050" stroke="#CFD1D3" stroke-width="7" stroke-linecap="round" stroke-linejoin="round" stroke-miterlimit="10" d="
		M349.3,214.2H8.3c-2.6,0-4.8-2.1-4.8-4.8V8.3c0-2.6,2.1-4.8,4.8-4.8h341c2.6,0,4.8,2.1,4.8,4.8v201.2
		C354,212.1,351.9,214.2,349.3,214.2z"/>
	
		<rect x="3.5" y="182.1" fill="#CFD1D3" stroke="#CFD1D3" stroke-width="7" stroke-linecap="round" stroke-linejoin="round" stroke-miterlimit="10" width="350.5" height="32.2"/>
	<g>
		<path fill-rule="evenodd" clip-rule="evenodd" fill="#FFFFFF" d="M179.9,191c0.8-0.9,1.3-2.1,1.2-3.4c-1.1,0-2.5,0.7-3.3,1.6
			c-0.7,0.8-1.3,2.1-1.2,3.3C177.9,192.6,179.1,191.9,179.9,191L179.9,191z"/>
		<path fill-rule="evenodd" clip-rule="evenodd" fill="#FFFFFF" d="M183.2,200.8h-15.4l0,0L183.2,200.8L183.2,200.8
			c-0.4-0.7-0.5-1.8-0.4-2.6v0h0c0.1-1.1,0.9-2.3,1.5-2.7c0,0,0,0,0,0v0h0l0,0c0.1-0.1,0.5-0.4,0.8-0.6c-1-1.3-2.5-2.1-4.1-2.1
			c-1.6-0.1-3.3,1-4.2,0.9c-0.9,0-2.2-1-3.6-0.9l0,0c0,0-0.3,0-0.3,0c-1.8,0-3.5,1.1-4.4,2.6v0h0v0c-0.4,0.6-0.8,1.9-0.9,2.7l0,0v0
			c-0.1,0.5,0,1.9,0.1,2.6l0,0c0,0,0,0,0,0l0,0c0.1,0.7,0.4,2,0.7,2.6v0h0c0.3,0.7,1,2,1.4,2.7v0h0c0.9,1.3,2,2.7,3.5,2.7
			c1.4-0.1,1.9-0.9,3.6-0.9c1.7,0,2.2,0.8,3.7,0.8c1.5-0.1,2.5-1.3,3.4-2.6c0.5-0.7,1.2-1.9,1.4-2.7h0c0-0.1,0.1-0.2,0.1-0.3
			C184.7,202.9,183.6,201.6,183.2,200.8L183.2,200.8z"/>
	</g>
	<path fill="#CFD1D3" d="M222.1,267.9h-90.9c-2,0-3.6-1.6-3.6-3.6v-2.4c0-2,1.6-3.6,3.6-3.6h90.9c2,0,3.6,1.6,3.6,3.6v2.4
		C225.6,266.3,224,267.9,222.1,267.9z"/>
	<g>
		<path fill="#E0E2E2" d="M318.8,46.8c0-2.7-2.2-4.9-4.9-4.9H159.7c-2.7,0-4.9,2.2-4.9,4.9V138c0,2.7,2.2,4.9,4.9,4.9h154.2
			c2.7,0,4.9-2.2,4.9-4.9V46.8z"/>
		<path fill="none" stroke="#000102" stroke-width="2" stroke-miterlimit="10" d="M318.8,46.8c0-2.7-2.2-4.9-4.9-4.9H159.7
			c-2.7,0-4.9,2.2-4.9,4.9V138c0,2.7,2.2,4.9,4.9,4.9h154.2c2.7,0,4.9-2.2,4.9-4.9V46.8z"/>
	</g>
	<line fill="#FFFFFF" stroke="#000102" stroke-width="2" stroke-miterlimit="10" x1="154.8" y1="56.9" x2="318.8" y2="56.9"/>
	<circle fill="#CE2E2E" cx="162.4" cy="48" r="2.2"/>
	<circle fill="#14C65C" cx="175" cy="48" r="2.2"/>
	<circle fill="#D9DD33" cx="168.7" cy="48" r="2.2"/>
	<g opacity="0.58">
		<path fill="#4F5656" d="M306.8,53.8c0-2.7-2.2-4.9-4.9-4.9H172.7c-2.7,0-4.9,2.2-4.9,4.9V131c0,2.7,2.2,4.9,4.9,4.9h129.2
			c2.7,0,4.9-2.2,4.9-4.9V53.8z"/>
	</g>
	<g>
		<path fill="#61717A" d="M296.8,33.8c0-2.7-2.2-4.9-4.9-4.9H137.7c-2.7,0-4.9,2.2-4.9,4.9V125c0,2.7,2.2,4.9,4.9,4.9h154.2
			c2.7,0,4.9-2.2,4.9-4.9V33.8z"/>
		<path fill="none" stroke="#000102" stroke-width="2" stroke-miterlimit="10" d="M296.8,33.8c0-2.7-2.2-4.9-4.9-4.9H137.7
			c-2.7,0-4.9,2.2-4.9,4.9V125c0,2.7,2.2,4.9,4.9,4.9h154.2c2.7,0,4.9-2.2,4.9-4.9V33.8z"/>
	</g>
	<line fill="#FFFFFF" stroke="#000102" stroke-width="2" stroke-miterlimit="10" x1="132.8" y1="43.9" x2="296.8" y2="43.9"/>
	<rect x="139.5" y="47.6" fill="#C65F63" width="54" height="5"/>
	<rect x="140.4" y="88.3" fill="#C65F63" width="54" height="5"/>
	<rect x="166.6" y="57.9" fill="#4AA3BA" width="38.4" height="5"/>
	<rect x="167.6" y="66.9" fill="#80468E" width="38.4" height="5"/>
	<rect x="162.6" y="105.7" fill="#80468E" width="38.4" height="5"/>
	<rect x="153.3" y="98.2" fill="#D8D048" width="38.4" height="5"/>
	<rect x="196.7" y="98.2" fill="#C65F63" width="8.4" height="5"/>
	<rect x="199" y="47.6" fill="#67BA6D" width="12.3" height="5"/>
	<rect x="198" y="88" fill="#67BA6D" width="37.6" height="5"/>
	<circle fill="#FC635E" cx="138.8" cy="35.4" r="1.6"/>
	<circle fill="#FDBE41" cx="143.7" cy="35.4" r="1.6"/>
	<circle fill="#35CC4B" cx="148.6" cy="35.4" r="1.6"/>
	
		<rect x="18.1" y="48.9" fill="#22282B" stroke="#000102" stroke-linecap="round" stroke-linejoin="round" stroke-miterlimit="10" width="88.2" height="47.6"/>
	
		<rect x="18.1" y="45.7" fill="#5C6266" stroke="#000102" stroke-linecap="round" stroke-linejoin="round" stroke-miterlimit="10" width="88.2" height="5.4"/>
	<circle fill="#FC635E" cx="20.9" cy="48.3" r="1.3"/>
	<circle fill="#FDBE41" cx="24.8" cy="48.3" r="1.3"/>
	<circle fill="#35CC4B" cx="28.7" cy="48.3" r="1.3"/>
	<rect x="19.7" y="53" fill="#54595B" width="73.3" height="1.6"/>
	<rect x="19.7" y="56.8" fill="#54595B" width="42.8" height="1.6"/>
	<rect x="19.7" y="60.4" fill="#54595B" width="50" height="1.6"/>
	<rect x="19.7" y="64" fill="#54595B" width="64.7" height="1.6"/>
</g>
</svg>
