<?xml version="1.0" encoding="UTF-8" standalone="no"?>
<svg width="828px" height="500px" viewBox="0 0 828 500" version="1.1" xmlns="http://www.w3.org/2000/svg" xmlns:xlink="http://www.w3.org/1999/xlink">
    <!-- Generator: Sketch 42 (36781) - http://www.bohemiancoding.com/sketch -->
    <title>Group 10</title>
    <desc>Created with Sketch.</desc>
    <defs></defs>
    <g id="Welcome" stroke="none" stroke-width="1" fill="none" fill-rule="evenodd">
        <g id="Case-study-Simple-shapes" transform="translate(-98.000000, -1736.000000)">
            <g id="parrot" transform="translate(98.000000, 1098.000000)">
                <g id="with-color" transform="translate(0.000000, 638.000000)">
                    <g id="Group-10">
                        <rect id="Rectangle-Copy" fill="#77D957" x="0" y="0" width="828" height="500"></rect>
                        <g id="Group-4" transform="translate(198.000000, 155.000000)">
                            <path d="M9.033,180.875 L90.033,180.875 L90.033,99.875 L9.033,99.875 L9.033,180.875 Z M0.033,189.875 L99.033,189.875 L99.033,90.875 L0.033,90.875 L0.033,189.875 Z" id="Stroke-1" stroke="#48962E" stroke-width="0.75"></path>
                            <path d="M93.7116,99.875 C71.3796,99.875 53.2116,118.043 53.2116,140.375 C53.2116,162.707 71.3796,180.875 93.7116,180.875 C116.0436,180.875 134.2116,162.707 134.2116,140.375 C134.2116,118.043 116.0436,99.875 93.7116,99.875 Z M93.7116,189.875 C66.4176,189.875 44.2116,167.669 44.2116,140.375 C44.2116,113.081 66.4176,90.875 93.7116,90.875 C121.0056,90.875 143.2116,113.081 143.2116,140.375 C143.2116,167.669 121.0056,189.875 93.7116,189.875 Z" id="Stroke-3" stroke="#48962E" stroke-width="0.75"></path>
                            <path d="M93.7116,39.875 C79.6506,39.875 68.2116,51.314 68.2116,65.375 C68.2116,79.436 79.6506,90.875 93.7116,90.875 C107.7726,90.875 119.2116,79.436 119.2116,65.375 C119.2116,51.314 107.7726,39.875 93.7116,39.875 Z M93.7116,99.875 C74.6886,99.875 59.2116,84.398 59.2116,65.375 C59.2116,46.352 74.6886,30.875 93.7116,30.875 C112.7346,30.875 128.2116,46.352 128.2116,65.375 C128.2116,84.398 112.7346,99.875 93.7116,99.875 Z" id="Stroke-4" stroke="#48962E" stroke-width="0.75"></path>
                            <path d="M37.974,90.875 L88.974,90.875 L88.974,39.875 L37.974,39.875 L37.974,90.875 Z M28.974,99.875 L97.974,99.875 L97.974,30.875 L28.974,30.875 L28.974,99.875 Z" id="Stroke-5" stroke="#48962E" stroke-width="0.75"></path>
                            <path d="M97.974,60.875 L148.974,60.875 L148.974,9.875 L97.974,9.875 L97.974,60.875 Z M88.974,69.875 L157.974,69.875 L157.974,0.875 L88.974,0.875 L88.974,69.875 Z" id="Stroke-6" stroke="#48962E" stroke-width="0.75"></path>
                            <path d="M94.1712,35.375 C77.6022,35.375 65.3412,49.028 65.3412,65.597 L124.1712,65.375 C124.1712,48.806 110.7402,35.375 94.1712,35.375" id="Fill-7" fill="#F2FF43"></path>
                            <path d="M94.1712,35.375 C77.6022,35.375 65.3412,49.028 65.3412,65.597 L124.1712,65.375 C124.1712,48.806 110.7402,35.375 94.1712,35.375 Z" id="Stroke-8" stroke="#000000" stroke-width="9"></path>
                            <path d="M138.3507,140.375 C138.3507,115.799 118.6407,95.858 94.1727,95.417 L94.1727,185.333 C118.6407,184.892 138.3507,164.951 138.3507,140.375" id="Fill-9" fill="#FC3F3F"></path>
                            <path d="M138.3507,140.375 C138.3507,115.799 118.6407,95.858 94.1727,95.417 L94.1727,185.333 C118.6407,184.892 138.3507,164.951 138.3507,140.375 Z" id="Stroke-10" stroke="#000000" stroke-width="9"></path>
                            <path d="M64.1712,65.375 C64.1712,81.944 77.6022,95.375 94.1712,95.375 L94.1712,35.819 C77.6022,35.819 64.1712,48.806 64.1712,65.375" id="Fill-11" fill="#FC3F3F"></path>
                            <path d="M64.1712,65.375 C64.1712,81.944 77.6022,95.375 94.1712,95.375 L94.1712,35.819 C77.6022,35.819 64.1712,48.806 64.1712,65.375 Z" id="Stroke-12" stroke="#000000" stroke-width="9"></path>
                            <path d="M86.9766,57.8474 C86.9766,61.1624 84.2916,63.8474 80.9766,63.8474 C77.6616,63.8474 74.9766,61.1624 74.9766,57.8474 C74.9766,54.5324 77.6616,51.8474 80.9766,51.8474 C84.2916,51.8474 86.9766,54.5324 86.9766,57.8474" id="Fill-13" fill="#000000"></path>
                        </g>
                        <g id="Group-5" transform="translate(456.000000, 194.000000)">
                            <path d="M30.5,0.396 C13.931,0.396 1.67,14.049 1.67,30.618 L60.5,30.396 C60.5,13.827 47.069,0.396 30.5,0.396" id="Fill-26" fill="#F2FF43"></path>
                            <path d="M30.5,0.396 C13.931,0.396 1.67,14.049 1.67,30.618 L60.5,30.396 C60.5,13.827 47.069,0.396 30.5,0.396 Z" id="Stroke-27" stroke="#000000" stroke-width="9"></path>
                            <path d="M74.6792,105.396 C74.6792,80.82 54.9692,60.879 30.5012,60.438 L30.5012,150.354 C54.9692,149.913 74.6792,129.972 74.6792,105.396" id="Fill-28" fill="#FC3F3F"></path>
                            <path d="M74.6792,105.396 C74.6792,80.82 54.9692,60.879 30.5012,60.438 L30.5012,150.354 C54.9692,149.913 74.6792,129.972 74.6792,105.396 Z" id="Stroke-29" stroke="#000000" stroke-width="9"></path>
                            <path d="M0.5,30.396 C0.5,46.965 13.931,60.396 30.5,60.396 L30.5,0.84 C13.931,0.84 0.5,13.827 0.5,30.396" id="Fill-30" fill="#FC3F3F"></path>
                            <path d="M0.5,30.396 C0.5,46.965 13.931,60.396 30.5,60.396 L30.5,0.84 C13.931,0.84 0.5,13.827 0.5,30.396 Z" id="Stroke-31" stroke="#000000" stroke-width="9"></path>
                            <path d="M23.3054,22.8684 C23.3054,26.1834 20.6204,28.8684 17.3054,28.8684 C13.9904,28.8684 11.3054,26.1834 11.3054,22.8684 C11.3054,19.5534 13.9904,16.8684 17.3054,16.8684 C20.6204,16.8684 23.3054,19.5534 23.3054,22.8684" id="Fill-32" fill="#000000"></path>
                        </g>
                    </g>
                </g>
            </g>
        </g>
    </g>
</svg>