<?xml version="1.0" encoding="utf-8"?>
<!-- Generator: Adobe Illustrator 18.0.0, SVG Export Plug-In . SVG Version: 6.00 Build 0)  -->
<!DOCTYPE svg PUBLIC "-//W3C//DTD SVG 1.1//EN" "http://www.w3.org/Graphics/SVG/1.1/DTD/svg11.dtd">
<svg version="1.1" id="Layer_1" xmlns="http://www.w3.org/2000/svg" xmlns:xlink="http://www.w3.org/1999/xlink" x="0px" y="0px"
	 viewBox="0 0 1188.9 736.2" enable-background="new 0 0 1188.9 736.2" xml:space="preserve">
<path fill="#F5F6F7" stroke="#2E6982" stroke-width="8" stroke-linecap="round" stroke-linejoin="round" stroke-miterlimit="10" d="
	M624.2,533.8h-59.2c-6.1,0-11.2-5-11.2-11.2v-100c0-6.1,5-11.2,11.2-11.2h59.2c6.1,0,11.2,5,11.2,11.2v100
	C635.4,528.8,630.4,533.8,624.2,533.8z"/>
<path fill="#E8AC34" stroke="#2E6982" stroke-width="8" stroke-linecap="round" stroke-linejoin="round" stroke-miterlimit="10" d="
	M732.2,169.5c0,0,34.9,46.5,0,76c-34.9,29.4-14.5-65.9-14.5-65.9"/>
<path fill="#E8AC34" stroke="#2E6982" stroke-width="8" stroke-linecap="round" stroke-linejoin="round" stroke-miterlimit="10" d="
	M446.4,176c0,0-21.7,56.8,12.6,91s7.6-75.4,7.6-75.4"/>
<path fill="#F5F6F7" stroke="#2E6982" stroke-width="8" stroke-linecap="round" stroke-linejoin="round" stroke-miterlimit="10" d="
	M732.2,270c0,104.1-50.3,188.4-136.5,188.4S457.1,374,457.1,270S509.5,81.6,595.7,81.6S732.2,165.9,732.2,270z"/>
<path fill="none" stroke="#2E6982" stroke-width="8" stroke-linecap="round" stroke-linejoin="round" stroke-miterlimit="10" d="
	M513.5,228c15.8-15.8,41.4-15.8,57.2,0"/>
<circle fill="#2E6982" cx="532.5" cy="250.5" r="15.9"/>
<path fill="none" stroke="#2E6982" stroke-width="8" stroke-linecap="round" stroke-linejoin="round" stroke-miterlimit="10" d="
	M616.5,228c15.8-15.8,41.4-15.8,57.2,0"/>
<circle fill="#2E6982" cx="638.5" cy="251.5" r="15.9"/>
<path fill="none" stroke="#2E6982" stroke-width="8" stroke-linecap="round" stroke-linejoin="round" stroke-miterlimit="10" d="
	M567.1,377.9c0,0,34.8,31.4,61.4-1.7"/>
<path fill="#E8E9EA" d="M466.8,210.3c0,0,57.8-26.7,85.9-34.3c28.2-7.6,46.4-5.7,73.6,0c27.2,5.7,47.9,11.7,68.2,12.1
	c20.3,0.5,29.3-12.1,29.7-17.2s19.7-16.4-19.8-23.8c-39.5-7.4-121.1-15.8-143.1-12.3c-21.9,3.5-64.4-7.4-76.2,9.9
	C473.2,161.9,466.8,210.3,466.8,210.3z"/>
<path fill="#E8AC34" stroke="#2E6982" stroke-width="8" stroke-linecap="round" stroke-linejoin="round" stroke-miterlimit="10" d="
	M467,195.2c0.2,2.3-66.9-29.1-19.1-99.1c44.6-65.3,112.8-52,112.8-52s119.6,32,171.5-10.6c50-41,46.3-27,46.3-27
	s56.9,96.4,6.2,120.8c-50.7,24.5-67,52.4-67,52.4s-87.3-30.4-123-24.9C558.9,160.1,486.2,184.3,467,195.2z"/>
<polygon fill="#E24949" stroke="#2E6982" stroke-width="8" stroke-linecap="round" stroke-linejoin="round" stroke-miterlimit="10" points="
	635.4,472.6 592.3,504.9 553.9,472.6 458.1,533.9 476.6,703.2 595.1,703.2 711.8,703.2 729.2,532.2 "/>
<rect x="0" y="690.4" fill="#967044" width="1188.9" height="45.7"/>
<path fill="#E3E6E8" stroke="#2E6982" stroke-width="5" stroke-miterlimit="10" d="M762.3,710.9H436.8c-7.2,0-13.2-5.9-13.2-13.2
	V545.3c0-7.2,5.9-13.2,13.2-13.2h325.5c7.2,0,13.2,5.9,13.2,13.2v152.4C775.5,705,769.6,710.9,762.3,710.9z"/>
<g>
	<path fill-rule="evenodd" clip-rule="evenodd" fill="#FFFFFF" d="M612.6,604c1.8-2.2,3.1-5.2,2.8-8.2c-2.7,0.1-6,1.7-7.9,3.9
		c-1.7,1.9-3.2,5-2.8,7.9C607.7,607.9,610.7,606.2,612.6,604L612.6,604z"/>
	<path fill-rule="evenodd" clip-rule="evenodd" fill="#FFFFFF" d="M620.5,627.8h-37.1l0,0L620.5,627.8L620.5,627.8
		c-0.9-1.7-1.3-4.3-1-6.3v-0.1h0c0.3-2.7,2.2-5.5,3.6-6.5c0,0,0,0,0.1,0v0h0l0,0c0.3-0.3,1.2-1,1.9-1.5c-2.3-3.2-6.1-5-9.9-5
		c-3.9-0.3-7.9,2.3-10,2.3c-2.1,0.1-5.3-2.3-8.6-2.2l0,0c-0.1,0-0.7,0-0.7,0c-4.4,0.1-8.3,2.6-10.6,6.4v0h0v0
		c-0.9,1.4-1.9,4.5-2.1,6.5l0,0v0.1c-0.2,1.3,0,4.7,0.2,6.3l0,0c0,0,0,0.1,0,0.1l0,0c0.2,1.6,1.1,4.8,1.7,6.3v0h0
		c0.6,1.7,2.4,4.9,3.5,6.5v0h0c2.3,3.1,4.9,6.6,8.5,6.4c3.4-0.1,4.7-2.2,8.7-2.1c4.1,0,5.2,2,8.8,2c3.7-0.1,5.9-3.3,8.2-6.4
		c1.1-1.6,2.9-4.7,3.5-6.5h0c0.1-0.2,0.2-0.5,0.2-0.7C624.1,632.8,621.4,629.8,620.5,627.8L620.5,627.8z"/>
</g>
</svg>
