<?xml version="1.0" encoding="utf-8"?>
<!-- Generator: Adobe Illustrator 18.0.0, SVG Export Plug-In . SVG Version: 6.00 Build 0)  -->
<!DOCTYPE svg PUBLIC "-//W3C//DTD SVG 1.1//EN" "http://www.w3.org/Graphics/SVG/1.1/DTD/svg11.dtd">
<svg version="1.1" id="Layer_1" xmlns="http://www.w3.org/2000/svg" xmlns:xlink="http://www.w3.org/1999/xlink" x="0px" y="0px"
	 viewBox="0 0 247 369.7" enable-background="new 0 0 247 369.7" xml:space="preserve">
<g>
	<g>
		<path fill="#7C7345" d="M21.6,67.8h218v37.5c0,0-21.7,58.1,0.2,104s-27.3,107.1-74.9,117.4c0,0-24.2,6.6-31.3,19.8
			c-6.8,12.5-23.4-16.2-23.4-16.2s-72.6-24.3-88.5-79.2"/>
		<path fill="#7C7345" d="M227.6,67.8H9.6v37.7c0,0,22,58.1,0.1,104s22.7,112.6,75.1,117.4c0,0,27.1,3.2,31.4,19.8
			c3.6,13.8,23.4-16.2,23.4-16.2s72.3-24.4,88.2-79.3"/>
		<polyline fill="#7C7345" points="116.5,347.3 124.1,363.8 133.7,346.5 		"/>
	</g>
	<g>
		<rect x="80.8" y="258.1" fill="#AFAC2B" width="95.9" height="45"/>
		<g>
			<rect x="102" y="274.9" width="53.6" height="4"/>
			<rect x="102" y="282.4" width="53.6" height="4"/>
		</g>
	</g>
	
		<path fill="#E8AC34" stroke="#2E6982" stroke-width="3.9452" stroke-linecap="round" stroke-linejoin="round" stroke-miterlimit="10" d="
		M189.9,85.8c0,0,17.2,23,0,37.5s-7.2-32.5-7.2-32.5"/>
	
		<path fill="#E8AC34" stroke="#2E6982" stroke-width="3.9452" stroke-linecap="round" stroke-linejoin="round" stroke-miterlimit="10" d="
		M49,89c0,0-10.7,28,6.2,44.9S59,96.7,59,96.7"/>
	
		<path fill="#F5F6F7" stroke="#2E6982" stroke-width="3.9452" stroke-linecap="round" stroke-linejoin="round" stroke-miterlimit="10" d="
		M189.9,135.4c0,51.3-24.8,92.9-67.3,92.9s-68.4-41.6-68.4-92.9s25.9-92.9,68.4-92.9S189.9,84,189.9,135.4z"/>
	
		<path fill="none" stroke="#2E6982" stroke-width="3.9452" stroke-linecap="round" stroke-linejoin="round" stroke-miterlimit="10" d="
		M108.5,188.6c0,0,17.2,15.5,30.3-0.9"/>
	<path fill="#E8E9EA" d="M59,105.9c0,0,28.5-13.2,42.4-16.9c13.9-3.8,22.9-2.8,36.3,0c13.4,2.8,23.6,5.7,33.6,6
		c10,0.2,14.4-6,14.6-8.5c0.2-2.5,9.7-8.1-9.8-11.7c-19.5-3.7-59.7-7.8-70.5-6.1C94.8,70.4,73.9,65,68,73.6S59,105.9,59,105.9z"/>
	
		<path fill="#E8AC34" stroke="#2E6982" stroke-width="3.9452" stroke-linecap="round" stroke-linejoin="round" stroke-miterlimit="10" d="
		M59.2,98.5c0.1,1.1-33-14.4-9.4-48.9c22-32.2,55.6-25.7,55.6-25.7s59,15.8,84.6-5.2c24.6-20.2,22.8-13.3,22.8-13.3s28,47.5,3,59.6
		s-33,25.8-33,25.8s-43.1-15-60.7-12.3S68.6,93.1,59.2,98.5z"/>
</g>
<g id="eyes">
	<g>
		
			<line fill="none" stroke="#2E6982" stroke-width="1.7928" stroke-linecap="round" stroke-linejoin="round" stroke-miterlimit="10" x1="108.5" y1="117.7" x2="92" y2="134.2"/>
		
			<line fill="none" stroke="#2E6982" stroke-width="1.7928" stroke-linecap="round" stroke-linejoin="round" stroke-miterlimit="10" x1="108.5" y1="134.2" x2="92" y2="117.7"/>
	</g>
	<g>
		
			<line fill="none" stroke="#2E6982" stroke-width="1.7928" stroke-linecap="round" stroke-linejoin="round" stroke-miterlimit="10" x1="152.5" y1="117.7" x2="136" y2="134.2"/>
		
			<line fill="none" stroke="#2E6982" stroke-width="1.7928" stroke-linecap="round" stroke-linejoin="round" stroke-miterlimit="10" x1="152.5" y1="134.2" x2="136" y2="117.7"/>
	</g>
</g>
<g id="mustache">
	<path fill="#606363" d="M124.2,162.6c0,0-8.2-11-25.9-0.2c-17.2,10.4-20.5,11.3-23.2,10.2c-6.1-2.5-0.4-14.5,5.9-8.8
		c0,0-3.6-9.3-11.9-1.2c-7.8,7.5-0.9,16.4-0.9,16.4c-0.2,0,4.9,6.5,14.2,7.7c3.8,0.5,6.9,1.3,17.7-0.4c14.2-2.3,25.5-10.7,25.5-10.7
		v-13l-0.9-0.1"/>
	<path fill="#606363" d="M120.1,162.6c0,0,8.2-11,25.9-0.2c17.2,10.4,20.5,11.3,23.2,10.2c6.1-2.5,0.4-14.5-5.9-8.8
		c0,0,3.6-9.3,11.9-1.2c7.8,7.5,0.9,16.4,0.9,16.4c0.2,0-4.9,6.5-14.2,7.7c-3.8,0.5-6,1.3-16.8-0.4c-14.2-2.3-24.6-10.7-24.6-10.7
		v-13l-0.1-0.1"/>
</g>
</svg>
