<?xml version="1.0" encoding="utf-8"?>
<!-- Generator: Adobe Illustrator 18.0.0, SVG Export Plug-In . SVG Version: 6.00 Build 0)  -->
<!DOCTYPE svg PUBLIC "-//W3C//DTD SVG 1.1//EN" "http://www.w3.org/Graphics/SVG/1.1/DTD/svg11.dtd">
<svg version="1.1" id="Layer_1" xmlns="http://www.w3.org/2000/svg" xmlns:xlink="http://www.w3.org/1999/xlink" x="0px" y="0px"
	 viewBox="0 0 39.3 17.2" enable-background="new 0 0 39.3 17.2" xml:space="preserve">
<g>
	<path fill="#B24040" d="M37.2,4H2C0.9,4,0,3.1,0,2v0c0-1.1,0.9-2,2-2h35.2c1.1,0,2,0.9,2,2v0C39.3,3.1,38.4,4,37.2,4z"/>
	<path fill="#B24040" d="M37.5,10.6H11.3c-1,0-1.8-0.8-1.8-1.8V8.3c0-1,0.8-1.8,1.8-1.8h26.2c1,0,1.8,0.8,1.8,1.8v0.5
		C39.3,9.8,38.5,10.6,37.5,10.6z"/>
	<path fill="#B24040" d="M37.8,17.2H20.6c-0.8,0-1.4-0.6-1.4-1.4v-1.1c0-0.8,0.6-1.4,1.4-1.4h17.2c0.8,0,1.4,0.6,1.4,1.4v1.1
		C39.3,16.6,38.6,17.2,37.8,17.2z"/>
</g>
</svg>
