<?xml version="1.0" encoding="utf-8"?>
<!-- Generator: Adobe Illustrator 18.0.0, SVG Export Plug-In . SVG Version: 6.00 Build 0)  -->
<!DOCTYPE svg PUBLIC "-//W3C//DTD SVG 1.1//EN" "http://www.w3.org/Graphics/SVG/1.1/DTD/svg11.dtd">
<svg version="1.1" id="Layer_1" xmlns="http://www.w3.org/2000/svg" xmlns:xlink="http://www.w3.org/1999/xlink" x="0px" y="0px"
	 viewBox="0 0 422.6 239.4" enable-background="new 0 0 422.6 239.4" xml:space="preserve">
<line fill="none" stroke="#DAD9DD" stroke-width="10" stroke-linecap="round" stroke-linejoin="round" stroke-miterlimit="10" x1="185" y1="169.4" x2="185" y2="234.4"/>
<line fill="none" stroke="#DAD9DD" stroke-width="10" stroke-linecap="round" stroke-linejoin="round" stroke-miterlimit="10" x1="242" y1="169.4" x2="242" y2="234.4"/>
<path fill="none" stroke="#DAD9DD" stroke-width="10" stroke-linecap="round" stroke-linejoin="round" stroke-miterlimit="10" d="
	M335.4,80.8c0,0,65.2-32.1,82.2,7.6"/>
<path fill="none" stroke="#DAD9DD" stroke-width="10" stroke-linecap="round" stroke-linejoin="round" stroke-miterlimit="10" d="
	M93.9,86c0,0-76.6,9.3-88.9-45.7"/>
<path fill="#FFFFFF" stroke="#EAEAEA" stroke-width="3" stroke-miterlimit="10" d="M332.8,169.7H95.4c-1.7,0-3-1.4-3-3V4.5
	c0-1.7,1.3-3,3-3h237.4c1.6,0,3,1.4,3,3v162.2C335.8,168.3,334.4,169.7,332.8,169.7z"/>
<path fill="#EAEAEA" d="M334.2,12.7H93.1c-0.4,0-0.7-0.3-0.7-0.7V3.2c0-0.4,0.3-0.7,0.7-0.7h241.1c0.4,0,0.7,0.3,0.7,0.7v8.8
	C335,12.4,334.6,12.7,334.2,12.7z"/>
<g>
	<circle fill="#FC635E" cx="99.5" cy="7.5" r="1.9"/>
	<circle fill="#FDBE41" cx="105.2" cy="7.5" r="1.9"/>
	<circle fill="#35CC4B" cx="111" cy="7.5" r="1.9"/>
</g>
<rect x="93.9" y="12.7" fill="#A785CC" width="240.4" height="73.3"/>
<rect x="162.6" y="20.9" fill="#8D76B2" width="102.1" height="9"/>
<rect x="131.6" y="40.3" fill="#8D76B2" width="174.8" height="9"/>
<rect x="131.6" y="54.6" fill="#8D76B2" width="174.8" height="9"/>
<rect x="109" y="96.2" fill="#87CCC6" width="91.8" height="41.5"/>
<rect x="109" y="141.6" fill="#E3E3E5" width="91.8" height="4.9"/>
<rect x="109" y="149.1" fill="#E3E3E5" width="91.8" height="4.9"/>
<rect x="109" y="156.8" fill="#E3E3E5" width="59.9" height="4.9"/>
<rect x="226.5" y="141.5" fill="#E3E3E5" width="91.8" height="4.9"/>
<rect x="226.5" y="149.1" fill="#E3E3E5" width="91.8" height="4.9"/>
<rect x="226.5" y="156.8" fill="#E3E3E5" width="59.9" height="4.9"/>
<rect x="226.5" y="96.2" fill="#87CCC6" width="91.8" height="41.5"/>
</svg>
