<?xml version="1.0" encoding="utf-8"?>
<!-- Generator: Adobe Illustrator 18.0.0, SVG Export Plug-In . SVG Version: 6.00 Build 0)  -->
<!DOCTYPE svg PUBLIC "-//W3C//DTD SVG 1.1//EN" "http://www.w3.org/Graphics/SVG/1.1/DTD/svg11.dtd">
<svg version="1.1" id="Layer_1" xmlns="http://www.w3.org/2000/svg" xmlns:xlink="http://www.w3.org/1999/xlink" x="0px" y="0px"
	 viewBox="0 0 385 93.7" enable-background="new 0 0 385 93.7" xml:space="preserve">
<path fill="#3B484C" d="M0,53.2V10.8c0-5.5,4.4-9.9,9.9-10c44.1-0.4,221.2-2,243.7,0.8c27.8,3.4,38.4,18.3,42.2,26.8
	c1.6,3.6,5.2,5.9,9.1,5.9H375c5.5,0,10,4.5,10,10v2c0,5.5-4.5,10-10,10h-70c-4.1,0-7.7,2.5-9.3,6.2c-3.8,9.2-14.4,25.6-42.4,29
	C230.8,94.2,54.1,93.8,10,93.6c-5.5,0-10-4.5-10-10V53.2"/>
<polygon fill="#B6B6B7" points="84.5,93.7 84.5,0.1 195.1,0.1 195.1,93.2 "/>
<rect x="325.2" y="34.3" fill="#7A2B2B" width="58.1" height="22"/>
<path fill="#7A2B2B" d="M378.4,56.9V33.6c0-1.8,1.5-3.3,3.3-3.3h0c1.8,0,3.3,1.5,3.3,3.3v23.3c0,1.8-1.5,3.3-3.3,3.3h0
	C379.9,60.2,378.4,58.7,378.4,56.9z"/>
<rect x="170.8" y="11.9" fill="#7B7B7C" width="5.5" height="71.5"/>
<rect x="162.3" y="18.2" fill="#9E9E9E" width="3.3" height="58.8"/>
<rect x="155.4" y="18.2" fill="#9E9E9E" width="3.3" height="58.8"/>
<rect x="148.4" y="18.2" fill="#9E9E9E" width="3.3" height="58.8"/>
<rect x="121" y="28.1" fill="#A2A2A5" width="5.5" height="38"/>
<rect x="108.6" y="8.7" fill="#A2A2A5" width="5.5" height="77.9"/>
</svg>
