<?xml version="1.0" encoding="utf-8"?>
<!-- Generator: Adobe Illustrator 18.0.0, SVG Export Plug-In . SVG Version: 6.00 Build 0)  -->
<!DOCTYPE svg PUBLIC "-//W3C//DTD SVG 1.1//EN" "http://www.w3.org/Graphics/SVG/1.1/DTD/svg11.dtd">
<svg version="1.1" id="Layer_1" xmlns="http://www.w3.org/2000/svg" xmlns:xlink="http://www.w3.org/1999/xlink" x="0px" y="0px"
	 viewBox="0 0 359.8 277" enable-background="new 0 0 359.8 277" xml:space="preserve">
<g>
	<ellipse fill="#EAEFF4" cx="178" cy="269.3" rx="128.8" ry="7.7"/>
	
		<rect x="163.5" y="215.1" fill="#CFD1D3" stroke="#CFD1D3" stroke-width="5.0319" stroke-linecap="round" stroke-linejoin="round" stroke-miterlimit="10" width="31.2" height="49.6"/>
	
		<path fill="#D35050" stroke="#CFD1D3" stroke-width="7.0447" stroke-linecap="round" stroke-linejoin="round" stroke-miterlimit="10" d="
		M351.5,215.6H8.3c-2.6,0-4.8-2.1-4.8-4.8V8.3c0-2.6,2.1-4.8,4.8-4.8h343.2c2.6,0,4.8,2.1,4.8,4.8v202.5
		C356.3,213.5,354.1,215.6,351.5,215.6z"/>
	
		<rect x="3.5" y="183.3" fill="#CFD1D3" stroke="#CFD1D3" stroke-width="7.0447" stroke-linecap="round" stroke-linejoin="round" stroke-miterlimit="10" width="352.8" height="32.4"/>
	<g>
		<path fill-rule="evenodd" clip-rule="evenodd" fill="#FFFFFF" d="M181.1,192.2c0.8-0.9,1.3-2.1,1.2-3.4c-1.1,0-2.5,0.7-3.3,1.6
			c-0.7,0.8-1.4,2.1-1.2,3.3C179,193.8,180.3,193.1,181.1,192.2L181.1,192.2z"/>
		<path fill-rule="evenodd" clip-rule="evenodd" fill="#FFFFFF" d="M184.4,202.1h-15.5l0,0L184.4,202.1L184.4,202.1
			c-0.4-0.7-0.5-1.8-0.4-2.6v0h0c0.1-1.1,0.9-2.3,1.5-2.7c0,0,0,0,0,0v0h0l0,0c0.1-0.1,0.5-0.4,0.8-0.6c-1-1.3-2.5-2.1-4.1-2.1
			c-1.6-0.1-3.3,1-4.2,0.9c-0.9,0-2.2-1-3.6-0.9l0,0c0,0-0.3,0-0.3,0c-1.8,0-3.5,1.1-4.4,2.7v0h0v0c-0.4,0.6-0.8,1.9-0.9,2.7l0,0v0
			c-0.1,0.5,0,1.9,0.1,2.6l0,0c0,0,0,0,0,0l0,0c0.1,0.7,0.4,2,0.7,2.6v0h0c0.3,0.7,1,2,1.5,2.7v0h0c0.9,1.3,2.1,2.7,3.5,2.7
			c1.4-0.1,1.9-0.9,3.6-0.9c1.7,0,2.2,0.8,3.7,0.9c1.5-0.1,2.5-1.4,3.4-2.7c0.5-0.7,1.2-2,1.4-2.7h0c0-0.1,0.1-0.2,0.1-0.3
			C185.9,204.2,184.8,202.9,184.4,202.1L184.4,202.1z"/>
	</g>
	<path fill="#CFD1D3" d="M223.5,269.6H132c-2,0-3.6-1.6-3.6-3.6v-2.5c0-2,1.6-3.6,3.6-3.6h91.4c2,0,3.6,1.6,3.6,3.6v2.5
		C227.1,268,225.5,269.6,223.5,269.6z"/>
	<g>
		<g>
			<path fill="#F2F3F4" d="M332.1,162.9c0,1.2-1,2.1-2.1,2.1h-193c-1.2,0-2.1-1-2.1-2.1V30.4c0-1.2,1-2.1,2.1-2.1h193
				c1.2,0,2.1,1,2.1,2.1V162.9z"/>
			<path fill="none" stroke="#E5E5E5" stroke-width="1.251" stroke-miterlimit="10" d="M332.1,162.9c0,1.2-1,2.1-2.1,2.1h-193
				c-1.2,0-2.1-1-2.1-2.1V30.4c0-1.2,1-2.1,2.1-2.1h193c1.2,0,2.1,1,2.1,2.1V162.9z"/>
		</g>
		<line fill="none" stroke="#E5E5E5" stroke-miterlimit="10" x1="134.4" y1="36.3" x2="332.4" y2="36.3"/>
		<g>
			<circle fill="#FC635E" cx="139" cy="32.1" r="1"/>
			<circle fill="#FDBE41" cx="142.1" cy="32.1" r="1"/>
			<circle fill="#35CC4B" cx="145.2" cy="32.1" r="1"/>
		</g>
		<path fill="#D4D6D4" d="M177.4,164.4h-40.7c-0.7,0-1.3-0.6-1.3-1.3V36.3h41.9V164.4z"/>
		<path fill="#D4D6D4" d="M289.5,164.4h40.7c0.7,0,1.3-0.6,1.3-1.3V36.3h-41.9V164.4z"/>
		<rect x="177.4" y="36.3" fill="#333D59" width="112.1" height="128.1"/>
		<rect x="180.7" y="49.1" fill="#C91CB1" width="12.3" height="2"/>
		<rect x="180.7" y="61.2" fill="#C91CB1" width="16.4" height="2"/>
		<rect x="197.9" y="61.2" fill="#E2E2E2" width="21.9" height="2"/>
		<rect x="194.2" y="49.1" fill="#E2E2E2" width="8.8" height="2"/>
		<rect x="180.7" y="52.3" fill="#C91CB1" width="12.3" height="2"/>
		<rect x="194.2" y="52.3" fill="#E2E2E2" width="8.8" height="2"/>
		<rect x="186.9" y="69" fill="#C91CB1" width="8.3" height="2"/>
		<rect x="186.8" y="72.3" fill="#C91CB1" width="17" height="2"/>
		<rect x="186.8" y="81.3" fill="#5F9341" width="2.8" height="2"/>
		<rect x="190.5" y="81.3" fill="#5F9341" width="9.7" height="2"/>
		<rect x="201" y="81.3" fill="#5F9341" width="4.1" height="2"/>
		<rect x="206" y="81.3" fill="#5F9341" width="4.1" height="2"/>
		<rect x="211" y="81.3" fill="#5F9341" width="7.5" height="2"/>
		<rect x="219.1" y="81.3" fill="#5F9341" width="3.2" height="2"/>
		<rect x="223" y="81.3" fill="#5F9341" width="3.2" height="2"/>
		<rect x="186.8" y="84.5" fill="#5F9341" width="2" height="2"/>
		<rect x="189.7" y="84.5" fill="#5F9341" width="11.3" height="2"/>
		<rect x="201.8" y="84.5" fill="#5F9341" width="4.8" height="2"/>
		<rect x="207.5" y="84.5" fill="#5F9341" width="1.9" height="2"/>
		<rect x="210.3" y="84.5" fill="#5F9341" width="11.9" height="2"/>
		<rect x="223" y="84.5" fill="#5F9341" width="6.4" height="2"/>
		<rect x="207.8" y="69" fill="#C91CB1" width="5.5" height="2"/>
		<rect x="204.7" y="72.3" fill="#C91CB1" width="5.5" height="2"/>
		<rect x="186.8" y="92" fill="#C91CB1" width="5.5" height="2"/>
		<rect x="205.1" y="92" fill="#C91CB1" width="5.5" height="2"/>
		<rect x="191.1" y="95.2" fill="#C91CB1" width="3.2" height="2"/>
		<rect x="196" y="69" fill="#E2E2E2" width="11" height="2"/>
		<rect x="193.2" y="92" fill="#E2E2E2" width="11" height="2"/>
		<rect x="186.8" y="127" fill="#C91CB1" width="5.5" height="2"/>
		<rect x="205.1" y="127" fill="#C91CB1" width="5.5" height="2"/>
		<rect x="212.8" y="134.9" fill="#C91CB1" width="8.7" height="2"/>
		<rect x="193.2" y="127" fill="#E2E2E2" width="11" height="2"/>
		<rect x="195.2" y="95.2" fill="#E2E2E2" width="6.6" height="2"/>
		<rect x="191.1" y="114.8" fill="#C91CB1" width="3.2" height="2"/>
		<rect x="195.2" y="114.8" fill="#E2E2E2" width="6.6" height="2"/>
		<rect x="211.1" y="72.3" fill="#E2E2E2" width="14.7" height="2"/>
		<rect x="220.7" y="61.2" fill="#4BA2DD" width="21.9" height="2"/>
		<rect x="226.7" y="72.3" fill="#4BA2DD" width="11.5" height="2"/>
		<rect x="211.5" y="92" fill="#4BA2DD" width="4.9" height="2"/>
		<rect x="191.1" y="101" fill="#C91CB1" width="10.1" height="2"/>
		<rect x="209.1" y="101" fill="#C91CB1" width="7.7" height="2"/>
		<rect x="217.7" y="101" fill="#C91CB1" width="4.8" height="2"/>
		<rect x="201.9" y="101" fill="#E2E2E2" width="6.4" height="2"/>
		<rect x="217.2" y="92" fill="#4BA2DD" width="7.8" height="2"/>
		<rect x="192.6" y="131.7" fill="#6A9E70" width="4.9" height="2"/>
		<rect x="198.4" y="131.7" fill="#4BA2DD" width="7.8" height="2"/>
		<rect x="192.6" y="134.9" fill="#6A9E70" width="8.6" height="2"/>
		<rect x="202.1" y="134.9" fill="#4BA2DD" width="9.8" height="2"/>
		<rect x="207" y="131.7" fill="#6A9E70" width="15" height="2"/>
		<rect x="206.5" y="108.1" fill="#4BA2DD" width="15.5" height="2"/>
		<rect x="195.3" y="104.9" fill="#C91CB1" width="3.2" height="2"/>
		<rect x="222.8" y="108.1" fill="#C91CB1" width="3.2" height="2"/>
		<rect x="199.4" y="104.9" fill="#E2E2E2" width="6.6" height="2"/>
		<rect x="195.3" y="108.1" fill="#E2E2E2" width="10.3" height="2"/>
		<rect x="186.8" y="123.7" fill="#5F9341" width="3.2" height="2"/>
		<rect x="190.9" y="123.7" fill="#5F9341" width="13.4" height="2"/>
		<rect x="205.1" y="123.7" fill="#5F9341" width="4.2" height="2"/>
		<rect x="210.2" y="123.7" fill="#5F9341" width="4.2" height="2"/>
		<rect x="138" y="42.1" fill="#B7B7B7" width="31.6" height="2.2"/>
		<rect x="159.4" y="31.1" fill="#D6D7D8" width="17.8" height="2.2"/>
		<rect x="185.2" y="31.1" fill="#D6D7D8" width="61.6" height="2.2"/>
		<rect x="300.6" y="31.1" fill="#D6D7D8" width="3.3" height="2.2"/>
		<rect x="305.2" y="31.1" fill="#D6D7D8" width="3.3" height="2.2"/>
		<rect x="309.8" y="31.1" fill="#D6D7D8" width="3.3" height="2.2"/>
		<rect x="316.1" y="31.1" fill="#D6D7D8" width="3.3" height="2.2"/>
		<rect x="320.7" y="31.1" fill="#D6D7D8" width="3.3" height="2.2"/>
		<rect x="325.3" y="31.1" fill="#D6D7D8" width="3.3" height="2.2"/>
		<rect x="144.3" y="45.5" fill="#B7B7B7" width="25.7" height="2.2"/>
		<rect x="144.3" y="49" fill="#B7B7B7" width="25.7" height="2.2"/>
		<rect x="144.3" y="52.2" fill="#B7B7B7" width="25.7" height="2.2"/>
		<rect x="140.9" y="55.8" fill="#B7B7B7" width="25.7" height="2.2"/>
		<rect x="144.3" y="59.1" fill="#B7B7B7" width="25.7" height="2.2"/>
		<rect x="144.3" y="62.3" fill="#B7B7B7" width="25.7" height="2.2"/>
		<rect x="140.9" y="66.2" fill="#B7B7B7" width="25.7" height="2.2"/>
		<rect x="144.3" y="69.4" fill="#B7B7B7" width="25.7" height="2.2"/>
		<rect x="144.3" y="72.6" fill="#B7B7B7" width="25.7" height="2.2"/>
		<rect x="144.3" y="76.1" fill="#B7B7B7" width="25.7" height="2.2"/>
		<path fill="#D6D7D8" d="M157.1,33.4h-2.5c-0.2,0-0.4-0.2-0.4-0.4v-1.7c0-0.2,0.2-0.4,0.4-0.4h2.5c0.2,0,0.4,0.2,0.4,0.4V33
			C157.6,33.2,157.4,33.4,157.1,33.4z"/>
		<rect x="155.1" y="31.4" fill="#373838" width="1.4" height="1.4"/>
		<path fill="#D6D7D8" d="M152.9,33.4h-2.5c-0.2,0-0.4-0.2-0.4-0.4v-1.7c0-0.2,0.2-0.4,0.4-0.4h2.5c0.2,0,0.4,0.2,0.4,0.4V33
			C153.3,33.2,153.1,33.4,152.9,33.4z"/>
		<polygon fill="#373838" points="150.9,31.4 152.2,32.2 150.9,32.9 		"/>
	</g>
	<g>
		<path fill="#030507" d="M97.3,138.2H57c-2.3,0-4.2-1.9-4.2-4.2v-4.7c0-2.3,1.9-4.2,4.2-4.2h40.3c2.3,0,4.2,1.9,4.2,4.2v4.7
			C101.6,136.3,99.7,138.2,97.3,138.2z"/>
		<path fill="#030507" d="M97.7,60H56.6c-2.1,0-3.9-1.7-3.9-3.9v0c0-2.1,1.7-3.9,3.9-3.9h41.1c2.1,0,3.9,1.7,3.9,3.9v0
			C101.6,58.3,99.8,60,97.7,60z"/>
		<path fill="#030507" d="M96.1,138.6H58.3c-3,0-5.5-2.5-5.5-5.5V57c0-3,2.5-5.5,5.5-5.5h37.8c3,0,5.5,2.5,5.5,5.5v76
			C101.6,136.1,99.1,138.6,96.1,138.6z"/>
		<circle fill="none" stroke="#3C3E3F" stroke-width="0.8481" stroke-miterlimit="10" cx="77" cy="131.4" r="3.8"/>
		<path fill="#3F3F3F" d="M83.9,57.5H70c-0.4,0-0.7-0.3-0.7-0.7v0c0-0.4,0.3-0.7,0.7-0.7h13.9c0.4,0,0.7,0.3,0.7,0.7v0
			C84.6,57.2,84.3,57.5,83.9,57.5z"/>
		<g>
			<path fill-rule="evenodd" clip-rule="evenodd" fill="#FFFFFF" d="M78.5,91.5c0.3-0.3,0.5-0.8,0.4-1.2c-0.4,0-0.9,0.3-1.2,0.6
				c-0.3,0.3-0.5,0.7-0.4,1.2C77.7,92.1,78.2,91.8,78.5,91.5L78.5,91.5z"/>
			<path fill-rule="evenodd" clip-rule="evenodd" fill="#FFFFFF" d="M79.7,95.1h-5.6l0,0L79.7,95.1L79.7,95.1
				c-0.1-0.3-0.2-0.6-0.1-0.9v0h0c0.1-0.4,0.3-0.8,0.5-1c0,0,0,0,0,0v0h0l0,0c0-0.1,0.2-0.2,0.3-0.2c-0.3-0.5-0.9-0.7-1.5-0.8
				c-0.6,0-1.2,0.4-1.5,0.3c-0.3,0-0.8-0.3-1.3-0.3l0,0c0,0-0.1,0-0.1,0c-0.7,0-1.3,0.4-1.6,1v0h0v0c-0.1,0.2-0.3,0.7-0.3,1l0,0v0
				c0,0.2,0,0.7,0,0.9l0,0c0,0,0,0,0,0l0,0c0,0.2,0.2,0.7,0.3,0.9v0h0c0.1,0.3,0.4,0.7,0.5,1v0h0c0.3,0.5,0.7,1,1.3,1
				c0.5,0,0.7-0.3,1.3-0.3c0.6,0,0.8,0.3,1.3,0.3c0.5,0,0.9-0.5,1.2-1c0.2-0.2,0.4-0.7,0.5-1h0c0,0,0-0.1,0-0.1
				C80.2,95.8,79.8,95.4,79.7,95.1L79.7,95.1z"/>
		</g>
		<polygon opacity="0.66" fill="#333435" points="101.9,57 101.4,55.9 101.4,54.4 100.3,54.3 98.8,51.7 81.5,52.1 81.7,52.2 
			81.5,52.1 101.4,100.8 101.4,56.8 		"/>
		<path fill="none" stroke="#6A6B6B" stroke-width="1.2721" stroke-miterlimit="10" d="M95.9,138.6H58.1c-3,0-5.5-2.5-5.5-5.5V57
			c0-3,2.5-5.5,5.5-5.5h37.8c3,0,5.5,2.5,5.5,5.5v76C101.4,136.1,98.9,138.6,95.9,138.6z"/>
	</g>
</g>
</svg>
