<?xml version="1.0" encoding="utf-8"?>
<!-- Generator: Adobe Illustrator 18.0.0, SVG Export Plug-In . SVG Version: 6.00 Build 0)  -->
<!DOCTYPE svg PUBLIC "-//W3C//DTD SVG 1.1//EN" "http://www.w3.org/Graphics/SVG/1.1/DTD/svg11.dtd">
<svg version="1.1" id="Layer_1" xmlns="http://www.w3.org/2000/svg" xmlns:xlink="http://www.w3.org/1999/xlink" x="0px" y="0px"
	 viewBox="0 0 1117.4 1586.7" enable-background="new 0 0 1117.4 1586.7" xml:space="preserve">
<g>
	
		<path fill="#F5F6F7" stroke="#2E6982" stroke-width="13.2808" stroke-linecap="round" stroke-linejoin="round" stroke-miterlimit="10" d="
		M618.3,886.2H520c-10.2,0-18.6-8.4-18.6-18.6v-166c0-10.2,8.4-18.6,18.6-18.6h98.2c10.2,0,18.6,8.4,18.6,18.6v166
		C636.8,877.8,628.5,886.2,618.3,886.2z"/>
	
		<path fill="#E8AC34" stroke="#2E6982" stroke-width="13.2808" stroke-linecap="round" stroke-linejoin="round" stroke-miterlimit="10" d="
		M797.5,281.3c0,0,57.9,77.3,0,126.1C739.6,456.3,773.4,298,773.4,298"/>
	
		<path fill="#E8AC34" stroke="#2E6982" stroke-width="13.2808" stroke-linecap="round" stroke-linejoin="round" stroke-miterlimit="10" d="
		M323.1,292.1c0,0-36,94.4,21,151.1S356.7,318,356.7,318"/>
	
		<path fill="#F5F6F7" stroke="#2E6982" stroke-width="13.2808" stroke-linecap="round" stroke-linejoin="round" stroke-miterlimit="10" d="
		M797.5,448.2C797.5,620.9,714,761,570.9,761s-230.2-140-230.2-312.8s87.1-312.8,230.2-312.8S797.5,275.4,797.5,448.2z"/>
	
		<path fill="none" stroke="#2E6982" stroke-width="13.2808" stroke-linecap="round" stroke-linejoin="round" stroke-miterlimit="10" d="
		M434.5,378.5c26.2-26.2,68.8-26.2,95,0"/>
	<circle fill="#2E6982" cx="466" cy="415.9" r="26.4"/>
	
		<path fill="none" stroke="#2E6982" stroke-width="13.2808" stroke-linecap="round" stroke-linejoin="round" stroke-miterlimit="10" d="
		M605.5,378.5c26.2-26.2,68.8-26.2,95,0"/>
	<circle fill="#2E6982" cx="642" cy="417.6" r="26.4"/>
	
		<path fill="none" stroke="#2E6982" stroke-width="13.2808" stroke-linecap="round" stroke-linejoin="round" stroke-miterlimit="10" d="
		M523.5,627.3c0,0,57.7,52.1,102-2.9"/>
	<path fill="#E8E9EA" d="M356.9,349c0,0,95.9-44.3,142.7-56.9s77.1-9.5,122.2,0c45.1,9.5,79.5,19.3,113.1,20.2s48.6-20.1,49.3-28.5
		c0.7-8.4,32.7-27.2-32.9-39.5C685.7,232,550.2,218,513.8,223.8s-106.9-12.3-126.6,16.4C367.5,268.8,356.9,349,356.9,349z"/>
	
		<path fill="#E8AC34" stroke="#2E6982" stroke-width="13.2808" stroke-linecap="round" stroke-linejoin="round" stroke-miterlimit="10" d="
		M357.3,324c0.3,3.8-111-48.4-31.7-164.6C399.6,51,512.9,73,512.9,73s198.5,53.1,284.7-17.7c83-68.1,76.8-44.8,76.8-44.8
		s94.4,160,10.2,200.6S773.4,298,773.4,298s-145-50.5-204.3-41.4C509.8,265.8,389,305.9,357.3,324z"/>
	<g>
		<path fill="#606363" d="M582.6,571c0,0-13.6-18.2-43-0.3c-28.5,17.3-34,18.8-38.4,16.9c-10.2-4.2-0.6-24,9.8-14.7
			c0,0-6-15.4-19.8-2c-13,12.5-1.5,27.2-1.5,27.2c-0.3-0.1,8.1,10.8,23.5,12.7c6.3,0.8,11,2.1,28.9-0.7
			c23.5-3.7,41.8-17.8,41.8-17.8v-21.5l-0.9-0.1"/>
		<path fill="#606363" d="M575.8,571c0,0,13.6-18.2,43-0.3c28.5,17.3,34,18.8,38.4,16.9c10.2-4.2,0.6-24-9.8-14.7c0,0,6-15.4,19.8-2
			c13,12.5,1.5,27.2,1.5,27.2c0.3-0.1-8.1,10.8-23.5,12.7c-6.3,0.8-10.2,2.1-28.2-0.7c-23.5-3.7-41.1-17.8-41.1-17.8v-21.5l0.2-0.1"
			/>
	</g>
	<circle fill="none" stroke="#606363" stroke-width="19.9211" stroke-miterlimit="10" cx="481.2" cy="413.3" r="57.2"/>
	<circle fill="none" stroke="#606363" stroke-width="19.9211" stroke-miterlimit="10" cx="656.6" cy="413.3" r="57.2"/>
	<path fill="none" stroke="#606363" stroke-width="19.9211" stroke-miterlimit="10" d="M528.3,383.3c0-15.6,18.2-28.3,40.5-28.3
		s40.5,12.7,40.5,28.3"/>
	<circle opacity="0.67" fill="#DFE6EA" cx="656" cy="413.5" r="47.6"/>
	<circle opacity="0.67" fill="#DFE6EA" cx="481.7" cy="413.5" r="47.6"/>
	
		<polygon fill="#4B84E0" stroke="#2E6982" stroke-width="13" stroke-linecap="round" stroke-linejoin="round" stroke-miterlimit="10" points="
		636.8,784.6 565.2,838.2 501.5,784.6 342.5,886.4 373.1,1167.5 570,1167.5 763.6,1167.5 792.6,883.6 	"/>
</g>
<g>
	<path fill="#E24949" d="M880.8,1586.7h-665c-98.9,0-179-80.1-179-179v-361c0-98.9,80.1-179,179-179h665c98.9,0,179,80.1,179,179
		v361C1059.8,1506.6,979.7,1586.7,880.8,1586.7z"/>
	<polygon fill="#FFFFFF" points="431.9,1081.3 704.7,1227.2 431.9,1373.1 	"/>
</g>
<polygon fill="#D9E4E8" points="432.2,1081.3 679.6,1240.8 704.9,1227.2 "/>
<path fill="none" stroke="#BC4B4B" stroke-width="10" stroke-miterlimit="10" d="M909,391.4l6.2-11.3c2-3.6,7.1-3.6,9.1,0l6.2,11.3
	c0.5,0.9,1.2,1.6,2.1,2.1l11.3,6.2c3.6,2,3.6,7.1,0,9.1l-11.3,6.2c-0.9,0.5-1.6,1.2-2.1,2.1l-6.2,11.3c-2,3.6-7.1,3.6-9.1,0L909,417
	c-0.5-0.9-1.2-1.6-2.1-2.1l-11.3-6.2c-3.6-2-3.6-7.1,0-9.1l11.3-6.2C907.8,393,908.5,392.3,909,391.4z"/>
<path fill="none" stroke="#BC4B4B" stroke-width="10" stroke-miterlimit="10" d="M1027.3,646.1l6.2-11.3c2-3.6,7.1-3.6,9.1,0
	l6.2,11.3c0.5,0.9,1.2,1.6,2.1,2.1l11.3,6.2c3.6,2,3.6,7.1,0,9.1l-11.3,6.2c-0.9,0.5-1.6,1.2-2.1,2.1l-6.2,11.3
	c-2,3.6-7.1,3.6-9.1,0l-6.2-11.3c-0.5-0.9-1.2-1.6-2.1-2.1l-11.3-6.2c-3.6-2-3.6-7.1,0-9.1l11.3-6.2
	C1026.1,647.7,1026.9,647,1027.3,646.1z"/>
<path fill="none" stroke="#BC4B4B" stroke-width="10" stroke-miterlimit="10" d="M882.3,788.8l6.2-11.3c2-3.6,7.1-3.6,9.1,0
	l6.2,11.3c0.5,0.9,1.2,1.6,2.1,2.1l11.3,6.2c3.6,2,3.6,7.1,0,9.1l-11.3,6.2c-0.9,0.5-1.6,1.2-2.1,2.1l-6.2,11.3
	c-2,3.6-7.1,3.6-9.1,0l-6.2-11.3c-0.5-0.9-1.2-1.6-2.1-2.1l-11.3-6.2c-3.6-2-3.6-7.1,0-9.1l11.3-6.2
	C881.1,790.4,881.8,789.7,882.3,788.8z"/>
<path fill="none" stroke="#4E76C4" stroke-width="10" stroke-miterlimit="10" d="M855.5,519.3l6.2-11.3c2-3.6,7.1-3.6,9.1,0
	l6.2,11.3c0.5,0.9,1.2,1.6,2.1,2.1l11.3,6.2c3.6,2,3.6,7.1,0,9.1l-11.3,6.2c-0.9,0.5-1.6,1.2-2.1,2.1l-6.2,11.3
	c-2,3.6-7.1,3.6-9.1,0l-6.2-11.3c-0.5-0.9-1.2-1.6-2.1-2.1l-11.3-6.2c-3.6-2-3.6-7.1,0-9.1l11.3-6.2
	C854.3,520.9,855,520.2,855.5,519.3z"/>
<path fill="none" stroke="#BC4B4B" stroke-width="10" stroke-miterlimit="10" d="M1004.3,288.5l6.2-11.3c2-3.6,7.1-3.6,9.1,0
	l6.2,11.3c0.5,0.9,1.2,1.6,2.1,2.1l11.3,6.2c3.6,2,3.6,7.1,0,9.1l-11.3,6.2c-0.9,0.5-1.6,1.2-2.1,2.1l-6.2,11.3
	c-2,3.6-7.1,3.6-9.1,0l-6.2-11.3c-0.5-0.9-1.2-1.6-2.1-2.1l-11.3-6.2c-3.6-2-3.6-7.1,0-9.1l11.3-6.2
	C1003.1,290.1,1003.8,289.4,1004.3,288.5z"/>
<path fill="none" stroke="#4E76C4" stroke-width="6.7797" stroke-miterlimit="10" d="M1088.2,187.6l-4.2-7.7c-1.3-2.4-4.8-2.4-6.2,0
	l-4.2,7.7c-0.3,0.6-0.8,1.1-1.4,1.4l-7.7,4.2c-2.4,1.3-2.4,4.8,0,6.2l7.7,4.2c0.6,0.3,1.1,0.8,1.4,1.4l4.2,7.7
	c1.3,2.4,4.8,2.4,6.2,0l4.2-7.7c0.3-0.6,0.8-1.1,1.4-1.4l7.7-4.2c2.4-1.3,2.4-4.8,0-6.2l-7.7-4.2
	C1089,188.7,1088.5,188.2,1088.2,187.6z"/>
<path fill="none" stroke="#BC4B4B" stroke-width="6.7797" stroke-miterlimit="10" d="M1004.1,550.2l-4.2-7.7c-1.3-2.4-4.8-2.4-6.2,0
	l-4.2,7.7c-0.3,0.6-0.8,1.1-1.4,1.4l-7.7,4.2c-2.4,1.3-2.4,4.8,0,6.2l7.7,4.2c0.6,0.3,1.1,0.8,1.4,1.4l4.2,7.7
	c1.3,2.4,4.8,2.4,6.2,0l4.2-7.7c0.3-0.6,0.8-1.1,1.4-1.4l7.7-4.2c2.4-1.3,2.4-4.8,0-6.2l-7.7-4.2
	C1004.9,551.2,1004.4,550.8,1004.1,550.2z"/>
<path fill="none" stroke="#4E76C4" stroke-width="6.7797" stroke-miterlimit="10" d="M986,730.1l-4.2-7.7c-1.3-2.4-4.8-2.4-6.2,0
	l-4.2,7.7c-0.3,0.6-0.8,1.1-1.4,1.4l-7.7,4.2c-2.4,1.3-2.4,4.8,0,6.2l7.7,4.2c0.6,0.3,1.1,0.8,1.4,1.4l4.2,7.7
	c1.3,2.4,4.8,2.4,6.2,0l4.2-7.7c0.3-0.6,0.8-1.1,1.4-1.4l7.7-4.2c2.4-1.3,2.4-4.8,0-6.2l-7.7-4.2C986.8,731.1,986.3,730.6,986,730.1
	z"/>
<path fill="none" stroke="#BC4B4B" stroke-width="18.1345" stroke-miterlimit="10" d="M1079.2,379.4l-11.2-20.5
	c-3.6-6.5-12.9-6.5-16.5,0l-11.2,20.5c-0.9,1.6-2.2,2.9-3.7,3.7l-20.5,11.2c-6.5,3.6-6.5,12.9,0,16.5l20.5,11.2
	c1.6,0.9,2.9,2.2,3.7,3.7l11.2,20.5c3.6,6.5,12.9,6.5,16.5,0l11.2-20.5c0.9-1.6,2.2-2.9,3.7-3.7l20.5-11.2c6.5-3.6,6.5-12.9,0-16.5
	l-20.5-11.2C1081.4,382.3,1080.1,381,1079.2,379.4z"/>
<path fill="none" stroke="#BC4B4B" stroke-width="18.1345" stroke-miterlimit="10" d="M885.6,635.7l-11.2-20.5
	c-3.6-6.5-12.9-6.5-16.5,0l-11.2,20.5c-0.9,1.6-2.2,2.9-3.7,3.7l-20.5,11.2c-6.5,3.6-6.5,12.9,0,16.5l20.5,11.2
	c1.6,0.9,2.9,2.2,3.7,3.7l11.2,20.5c3.6,6.5,12.9,6.5,16.5,0l11.2-20.5c0.9-1.6,2.2-2.9,3.7-3.7l20.5-11.2c6.5-3.6,6.5-12.9,0-16.5
	l-20.5-11.2C887.8,638.6,886.5,637.3,885.6,635.7z"/>
<path fill="none" stroke="#BC4B4B" stroke-width="6.7797" stroke-miterlimit="10" d="M134.9,408.9l-4.2-7.7c-1.3-2.4-4.8-2.4-6.2,0
	l-4.2,7.7c-0.3,0.6-0.8,1.1-1.4,1.4l-7.7,4.2c-2.4,1.3-2.4,4.8,0,6.2l7.7,4.2c0.6,0.3,1.1,0.8,1.4,1.4l4.2,7.7
	c1.3,2.4,4.8,2.4,6.2,0l4.2-7.7c0.3-0.6,0.8-1.1,1.4-1.4l7.7-4.2c2.4-1.3,2.4-4.8,0-6.2l-7.7-4.2C135.7,410,135.2,409.5,134.9,408.9
	z"/>
<path fill="none" stroke="#BC4B4B" stroke-width="6.7797" stroke-miterlimit="10" d="M143.6,605l-4.2-7.7c-1.3-2.4-4.8-2.4-6.2,0
	l-4.2,7.7c-0.3,0.6-0.8,1.1-1.4,1.4l-7.7,4.2c-2.4,1.3-2.4,4.8,0,6.2l7.7,4.2c0.6,0.3,1.1,0.8,1.4,1.4l4.2,7.7
	c1.3,2.4,4.8,2.4,6.2,0l4.2-7.7c0.3-0.6,0.8-1.1,1.4-1.4l7.7-4.2c2.4-1.3,2.4-4.8,0-6.2l-7.7-4.2C144.4,606,143.9,605.5,143.6,605z"
	/>
<path fill="none" stroke="#4E76C4" stroke-width="10" stroke-miterlimit="10" d="M68.3,519.6l-6.2-11.3c-2-3.6-7.1-3.6-9.1,0
	l-6.2,11.3c-0.5,0.9-1.2,1.6-2.1,2.1l-11.3,6.2c-3.6,2-3.6,7.1,0,9.1l11.3,6.2c0.9,0.5,1.6,1.2,2.1,2.1l6.2,11.3
	c2,3.6,7.1,3.6,9.1,0l6.2-11.3c0.5-0.9,1.2-1.6,2.1-2.1l11.3-6.2c3.6-2,3.6-7.1,0-9.1l-11.3-6.2C69.5,521.1,68.8,520.4,68.3,519.6z"
	/>
<path fill="none" stroke="#4E76C4" stroke-width="10" stroke-miterlimit="10" d="M229.5,789.1l-6.2-11.3c-2-3.6-7.1-3.6-9.1,0
	l-6.2,11.3c-0.5,0.9-1.2,1.6-2.1,2.1l-11.3,6.2c-3.6,2-3.6,7.1,0,9.1l11.3,6.2c0.9,0.5,1.6,1.2,2.1,2.1l6.2,11.3
	c2,3.6,7.1,3.6,9.1,0l6.2-11.3c0.5-0.9,1.2-1.6,2.1-2.1l11.3-6.2c3.6-2,3.6-7.1,0-9.1l-11.3-6.2C230.7,790.7,230,790,229.5,789.1z"
	/>
<path fill="none" stroke="#BC4B4B" stroke-width="10" stroke-miterlimit="10" d="M272.4,659.8l-6.2-11.3c-2-3.6-7.1-3.6-9.1,0
	l-6.2,11.3c-0.5,0.9-1.2,1.6-2.1,2.1l-11.3,6.2c-3.6,2-3.6,7.1,0,9.1l11.3,6.2c0.9,0.5,1.6,1.2,2.1,2.1l6.2,11.3
	c2,3.6,7.1,3.6,9.1,0l6.2-11.3c0.5-0.9,1.2-1.6,2.1-2.1l11.3-6.2c3.6-2,3.6-7.1,0-9.1l-11.3-6.2
	C273.6,661.4,272.9,660.7,272.4,659.8z"/>
<path fill="none" stroke="#BC4B4B" stroke-width="15.933" stroke-miterlimit="10" d="M252,472l-9.8-18c-3.1-5.7-11.3-5.7-14.5,0
	l-9.8,18c-0.8,1.4-1.9,2.5-3.3,3.3l-18,9.8c-5.7,3.1-5.7,11.3,0,14.5l18,9.8c1.4,0.8,2.5,1.9,3.3,3.3l9.8,18
	c3.1,5.7,11.3,5.7,14.5,0l9.8-18c0.8-1.4,1.9-2.5,3.3-3.3l18-9.8c5.7-3.1,5.7-11.3,0-14.5l-18-9.8C253.9,474.5,252.8,473.4,252,472z
	"/>
<path fill="none" stroke="#BC4B4B" stroke-width="15.933" stroke-miterlimit="10" d="M133.6,705.4l-9.8-18c-3.1-5.7-11.3-5.7-14.5,0
	l-9.8,18c-0.8,1.4-1.9,2.5-3.3,3.3l-18,9.8c-5.7,3.1-5.7,11.3,0,14.5l18,9.8c1.4,0.8,2.5,1.9,3.3,3.3l9.8,18
	c3.1,5.7,11.3,5.7,14.5,0l9.8-18c0.8-1.4,1.9-2.5,3.3-3.3l18-9.8c5.7-3.1,5.7-11.3,0-14.5l-18-9.8
	C135.5,707.9,134.4,706.7,133.6,705.4z"/>
<path fill="none" stroke="#BC4B4B" stroke-width="10" stroke-miterlimit="10" d="M138.3,165.4l-6.2-11.3c-2-3.6-7.1-3.6-9.1,0
	l-6.2,11.3c-0.5,0.9-1.2,1.6-2.1,2.1l-11.3,6.2c-3.6,2-3.6,7.1,0,9.1l11.3,6.2c0.9,0.5,1.6,1.2,2.1,2.1l6.2,11.3
	c2,3.6,7.1,3.6,9.1,0l6.2-11.3c0.5-0.9,1.2-1.6,2.1-2.1l11.3-6.2c3.6-2,3.6-7.1,0-9.1l-11.3-6.2C139.5,167,138.8,166.2,138.3,165.4z
	"/>
<path fill="none" stroke="#BC4B4B" stroke-width="18.1345" stroke-miterlimit="10" d="M77,278.1l-11.2-20.5
	c-3.6-6.5-12.9-6.5-16.5,0l-11.2,20.5c-0.9,1.6-2.2,2.9-3.7,3.7L14,293.1c-6.5,3.6-6.5,12.9,0,16.5l20.5,11.2
	c1.6,0.9,2.9,2.2,3.7,3.7l11.2,20.5c3.6,6.5,12.9,6.5,16.5,0L77,324.5c0.9-1.6,2.2-2.9,3.7-3.7l20.5-11.2c6.5-3.6,6.5-12.9,0-16.5
	l-20.5-11.2C79.2,281,77.9,279.7,77,278.1z"/>
<path fill="none" stroke="#4E76C4" stroke-width="10" stroke-miterlimit="10" d="M205.3,315.9l-6.2-11.3c-2-3.6-7.1-3.6-9.1,0
	l-6.2,11.3c-0.5,0.9-1.2,1.6-2.1,2.1l-11.3,6.2c-3.6,2-3.6,7.1,0,9.1l11.3,6.2c0.9,0.5,1.6,1.2,2.1,2.1l6.2,11.3
	c2,3.6,7.1,3.6,9.1,0l6.2-11.3c0.5-0.9,1.2-1.6,2.1-2.1l11.3-6.2c3.6-2,3.6-7.1,0-9.1l-11.3-6.2
	C206.5,317.5,205.8,316.7,205.3,315.9z"/>
</svg>
