<?xml version="1.0" encoding="utf-8"?>
<!-- Generator: Adobe Illustrator 18.0.0, SVG Export Plug-In . SVG Version: 6.00 Build 0)  -->
<!DOCTYPE svg PUBLIC "-//W3C//DTD SVG 1.1//EN" "http://www.w3.org/Graphics/SVG/1.1/DTD/svg11.dtd">
<svg version="1.1" id="Layer_1" xmlns="http://www.w3.org/2000/svg" xmlns:xlink="http://www.w3.org/1999/xlink" x="0px" y="0px"
	 viewBox="0 0 75.2 75.2" enable-background="new 0 0 75.2 75.2" xml:space="preserve">
<g>
	<circle fill="#EB586F" cx="37.6" cy="37.6" r="37.6"/>
	<g>
		<path fill="#FFFFFF" d="M51.6,30.2h-28c-1.1,0-2-0.9-2-2v-0.8c0-1.1,0.9-2,2-2h28c1.1,0,2,0.9,2,2v0.8
			C53.6,29.3,52.7,30.2,51.6,30.2z"/>
		<path fill="#FFFFFF" d="M51.6,40h-28c-1.1,0-2-0.9-2-2v-0.8c0-1.1,0.9-2,2-2h28c1.1,0,2,0.9,2,2V38C53.6,39.1,52.7,40,51.6,40z"/>
		<path fill="#FFFFFF" d="M51.6,49.8h-28c-1.1,0-2-0.9-2-2V47c0-1.1,0.9-2,2-2h28c1.1,0,2,0.9,2,2v0.8
			C53.6,48.9,52.7,49.8,51.6,49.8z"/>
	</g>
</g>
</svg>
